<?xml version="1.0" encoding="utf-8"?>
<!-- Generator: Adobe Illustrator 19.1.0, SVG Export Plug-In . SVG Version: 6.00 Build 0)  -->
<svg version="1.1" id="Layer_1" xmlns="http://www.w3.org/2000/svg" xmlns:xlink="http://www.w3.org/1999/xlink" x="0px" y="0px"
	 viewBox="0 0 1587.9 138" style="enable-background:new 0 0 1587.9 138;" xml:space="preserve">
<style type="text/css">
	.st0{fill:none;stroke:#232F66;stroke-width:5.432;stroke-linecap:round;stroke-miterlimit:10;}
	.st1{fill:#FFFFFF;}
	.st2{fill:none;stroke:#0091BF;stroke-width:5.432;stroke-linecap:round;stroke-miterlimit:10;}
	.st3{fill:none;stroke:#232F66;stroke-width:5.432;stroke-miterlimit:10;}
	.st4{fill:none;stroke:#232F66;stroke-width:5.432;stroke-linecap:round;stroke-linejoin:round;stroke-miterlimit:10;}
	.st5{fill:none;stroke:#0091BF;stroke-width:5.432;stroke-miterlimit:10;}
</style>
<line class="st0" x1="1207.8" y1="133.5" x2="1360.4" y2="133.5"/>
<line class="st0" x1="977.3" y1="133.5" x2="1171.8" y2="133.5"/>
<line class="st0" x1="3.6" y1="133.5" x2="902.3" y2="133.5"/>
<line class="st0" x1="1583.6" y1="133.5" x2="1472.1" y2="133.5"/>
<line class="st0" x1="922.2" y1="133.5" x2="957.4" y2="133.5"/>
<path class="st1" d="M963.8,5.6c1.1-0.3,2.3-0.4,3.6-0.4c8.2,0,14.9,6.7,14.9,14.9V23"/>
<path class="st2" d="M963.8,5.6c1.1-0.3,2.3-0.4,3.6-0.4c8.2,0,14.9,6.7,14.9,14.9V23"/>
<path class="st1" d="M953,15.3c-0.8,2.4-0.5,7.7-0.5,7.7"/>
<path class="st2" d="M953,15.3c-0.8,2.4-0.5,7.7-0.5,7.7"/>
<path class="st1" d="M973.4,121.2h-12.1c-17.7,0-32-14.3-32-32V29.6c0-3.3,2.7-6,6-6h64c3.3,0,6,2.7,6,6v59.6
	C1005.4,106.9,991,121.2,973.4,121.2"/>
<path class="st3" d="M1005.4,50.3c-19.8,14.8-38,0-38,0c-19.8-14.8-38,0-38,0"/>
<path class="st2" d="M973.4,121.2h-12.1c-17.7,0-32-14.3-32-32V29.6c0-3.3,2.7-6,6-6h64c3.3,0,6,2.7,6,6v59.6
	C1005.4,106.9,991,121.2,973.4,121.2z"/>
<path class="st1" d="M994.4,89.2c0,11.1-9,20.2-20.2,20.2"/>
<path class="st2" d="M994.4,89.2c0,11.1-9,20.2-20.2,20.2"/>
<line class="st0" x1="940.9" y1="90" x2="961.6" y2="90"/>
<line class="st0" x1="940.9" y1="77.7" x2="961.6" y2="77.7"/>
<line class="st0" x1="940.9" y1="65.5" x2="961.6" y2="65.5"/>
<path class="st4" d="M971.4,13.4l-4.1,4L952.2,5.6c-0.6-0.3-1.2-0.4-1.8-0.4h-32.6c-3,0-5.5,2.5-5.5,5.5v122.8"/>
<line class="st0" x1="986.1" y1="5.6" x2="994.9" y2="5.6"/>
<line class="st0" x1="967.3" y1="121.2" x2="967.3" y2="133.5"/>
<polygon class="st4" points="1235.5,95.8 1189.8,122.2 1144,95.8 1144,43 1189.8,16.5 1235.5,43 "/>
<polyline class="st4" points="1235.5,43 1189.8,69.4 1144,43 "/>
<path class="st1" d="M1201.1,16.5c0,6.3-5.1,11.3-11.3,11.3s-11.3-5.1-11.3-11.3c0-6.3,5.1-11.3,11.3-11.3S1201.1,10.3,1201.1,16.5"
	/>
<path class="st1" d="M1201.1,69.4c0,6.3-5.1,11.3-11.3,11.3s-11.3-5.1-11.3-11.3c0-6.3,5.1-11.3,11.3-11.3S1201.1,63.1,1201.1,69.4"
	/>
<path class="st1" d="M1201.1,122.2c0,6.3-5.1,11.3-11.3,11.3s-11.3-5.1-11.3-11.3c0-6.3,5.1-11.3,11.3-11.3
	S1201.1,115.9,1201.1,122.2"/>
<path class="st1" d="M1246.9,41.3c0,6.3-5.1,11.3-11.3,11.3c-6.3,0-11.3-5.1-11.3-11.3c0-6.3,5.1-11.3,11.3-11.3
	C1241.8,30,1246.9,35,1246.9,41.3"/>
<circle class="st2" cx="1235.5" cy="41.3" r="11.3"/>
<path class="st1" d="M1155.4,41.3c0,6.3-5.1,11.3-11.3,11.3c-6.3,0-11.3-5.1-11.3-11.3c0-6.3,5.1-11.3,11.3-11.3
	C1150.3,30,1155.4,35,1155.4,41.3"/>
<circle class="st2" cx="1144" cy="41.3" r="11.3"/>
<line class="st4" x1="1189.8" y1="27.9" x2="1189.8" y2="48.1"/>
<line class="st4" x1="1189.8" y1="81.3" x2="1189.8" y2="110"/>
<line class="st4" x1="1235.5" y1="95.8" x2="1209.2" y2="78.8"/>
<line class="st4" x1="1144" y1="95.8" x2="1170.4" y2="78.8"/>
<path class="st1" d="M1246.9,95.8c0,6.3-5.1,11.3-11.3,11.3c-6.3,0-11.3-5.1-11.3-11.3c0-6.3,5.1-11.3,11.3-11.3
	C1241.8,84.4,1246.9,89.5,1246.9,95.8"/>
<circle class="st2" cx="1235.5" cy="95.8" r="11.3"/>
<path class="st1" d="M1155.4,95.8c0,6.3-5.1,11.3-11.3,11.3c-6.3,0-11.3-5.1-11.3-11.3c0-6.3,5.1-11.3,11.3-11.3
	C1150.3,84.4,1155.4,89.5,1155.4,95.8"/>
<circle class="st2" cx="1144" cy="95.8" r="11.3"/>
<line class="st4" x1="1417.5" y1="86.3" x2="1380.6" y2="86.3"/>
<path class="st1" d="M1453.4,120.4h-0.5v-11.8c11.1-6.3,18.5-18.2,18.5-31.9c0-19.4-15.1-35.2-34.1-36.5c-2-2.6-5.1-4.2-8.5-4.2
	c-4.9,0-9.1,3.4-10.5,8c-0.3,1.1-0.5,2.2-0.5,3.4c0,4,1.9,7.4,4.9,9.5c1.7,1.2,3.8,1.9,6.1,1.9c3.8,0,7.1-2,9.1-5
	c11.4,1.5,20.1,11.3,20.1,23c0,7.7-3.7,14.5-9.5,18.7h-27.6c-2.7,0-4.8,2.2-4.8,4.8v8v12.1h-37.2c-5,0-9.1,4.1-9.1,9.1v4h92.5v-4
	C1462.5,124.5,1458.4,120.4,1453.4,120.4"/>
<path class="st5" d="M1453.4,120.4h-0.5v-11.8c11.1-6.3,18.5-18.2,18.5-31.9c0-19.4-15.1-35.2-34.1-36.5c-2-2.6-5.1-4.2-8.5-4.2
	c-4.9,0-9.1,3.4-10.5,8c-0.3,1.1-0.5,2.2-0.5,3.4c0,4,1.9,7.4,4.9,9.5c1.7,1.2,3.8,1.9,6.1,1.9c3.8,0,7.1-2,9.1-5
	c11.4,1.5,20.1,11.3,20.1,23c0,7.7-3.7,14.5-9.5,18.7h-27.6c-2.7,0-4.8,2.2-4.8,4.8v8v12.1h-37.2c-5,0-9.1,4.1-9.1,9.1v4h92.5v-4
	C1462.5,124.5,1458.4,120.4,1453.4,120.4z"/>
<polygon class="st1" points="1403.9,15.9 1409.6,15.9 1409.6,5.2 1388.6,5.2 1388.6,15.9 1394.3,15.9 1394.3,28 1388.6,28 
	1388.6,58.7 1393.9,64.2 1393.9,75.6 1404.2,75.6 1404.2,64.2 1409.6,58.7 1409.6,28 1403.9,28 "/>
<polygon class="st4" points="1403.9,15.9 1409.6,15.9 1409.6,5.2 1388.6,5.2 1388.6,15.9 1394.3,15.9 1394.3,28 1388.6,28 
	1388.6,58.7 1393.9,64.2 1393.9,75.6 1404.2,75.6 1404.2,64.2 1409.6,58.7 1409.6,28 1403.9,28 "/>
<circle class="st2" cx="1189.8" cy="16.5" r="11.3"/>
<circle class="st2" cx="1189.8" cy="69.4" r="11.3"/>
<circle class="st2" cx="1189.8" cy="122.2" r="11.3"/>
</svg>
