<?xml version="1.0" encoding="utf-8"?>
<!-- Generator: Adobe Illustrator 19.1.0, SVG Export Plug-In . SVG Version: 6.00 Build 0)  -->
<svg version="1.1" id="Layer_1" xmlns="http://www.w3.org/2000/svg" xmlns:xlink="http://www.w3.org/1999/xlink" x="0px" y="0px"
	 viewBox="0 0 263 50.8" style="enable-background:new 0 0 263 50.8;" xml:space="preserve">
<style type="text/css">
	.st0{fill:none;stroke:#A61564;stroke-width:0.5;stroke-miterlimit:10;}
</style>
<path class="st0" d="M39.6,3.3c0,1.3-1.1,2.4-2.4,2.4c-1.3,0-2.4-1.1-2.4-2.4c0-1.3,1.1-2.4,2.4-2.4C38.5,0.8,39.6,1.9,39.6,3.3z
	 M4.7,51.2c0,0,0.4-1.4,0.6-1.7c0.2-0.3,0.6-1.2,1-1.7c0.3-0.5,1.4-2.5,1.6-2.9c0.3-0.3,1.2-1.1,1.4-1.4c0.1-0.3,1-1.2,1.3-1.8
	c0.4-0.6,2.9-4.4,3.5-4.6c0.6-0.1,0.9-0.3,1.2,0c0.3,0.3,2.2,2.2,2.7,2.7c0.5,0.5,1.9,1.6,1.9,1.9c0,0.3,0.5,0.8,0.6,1.3
	c0.1,0.5,0.3,1.5,0.2,2c0,0.5-0.2,4.4,0,4.8c0.2,0.3,0.1,0.6,0.2,0.6c0.1,0,0.3,0.9,0,0.9C20.6,51.3,4.7,51.2,4.7,51.2z M55.3,51.3
	c0,0-1.3-1.3-1.4-1.7c0-0.4,0.3-0.5,0-0.8c-0.3-0.3-2.9-2.3-3.3-3c-0.4-0.7-0.8-1.1-1.3-1.5c-0.5-0.5-1.9-1.6-2-2
	c-0.1-0.4-0.4-1.1-0.6-1.4c-0.2-0.3-0.7-0.4-0.7,0s-0.6,1.8-0.8,2.3c-0.2,0.5-1,1.7-1.2,2c-0.3,0.3-0.1,1.8,0,2.2
	c0.1,0.4,0.8,3.7,0.8,3.9C44.8,51.6,55.3,51.3,55.3,51.3z M-7.5,51.5l8.8-0.2c0,0,0-1,0.3-1.4c0.3-0.4,0.5-0.5,0.5-0.5v-0.9h0.7
	c0,0-0.2-1.4,0-1.6c0.2-0.3,2.5-3.9,2.8-4l0.3-0.1c0,0,0.6-1.4,0.7-1.6c0.1-0.2,1.3-1.8,1.4-2.2c0.2-0.4,1.8-3.9,2.1-4.4
	c0.3-0.5,1.6-2.8,1.9-3.1c0.3-0.3,0.1-0.8,0.2-0.9c0.1,0,0.5-0.5,0.5-0.5l0.2-0.6c0,0,1-1,1.2-1.4c0.2-0.4,0.5-2.9,0.5-2.9
	s-1.5,1.4-1.8,1.5c-0.2,0.1-1.1,0-1.1,0s-0.5-1-0.3-1.4c0.2-0.5,1.7-1.6,1.8-2c0.1-0.4,0.8-1.5,1-1.6c0.1-0.1,0.4-0.5,0.4-0.5
	s0.1-0.5,0-1c-0.1-0.5-0.3-0.6,0-1.8c0.4-1.2,1.4-2.4,2.3-2.9c1-0.5,1.8,0,1.8,0s1,0.1,1.1,0.3c0.1,0.2,0.8,0.9,0.8,1.2l0.3,0.2v0.5
	c0,0,0,0.6,0,0.8l0,0.2v0.4c0,0,0.4,0.5,0,0.7c-0.4,0.2-1,0.7-1,1c0,0.3,0.1,0.9,0.3,1c0.1,0,1,0,1.7-0.3c0.7-0.3,1.7-0.4,1.9-0.5
	c0.2-0.2,1.9-1.4,2.3-1.4c0,0,0.4-2.1,0.6-2.5c0.2-0.4,0.6-2.7,0.6-2.9c0-0.2-2.1-1.1-2.1-1.1l-1.1-1.1c0,0-0.2-0.1,0.4,0l1,0.5h1
	L26,11.4c0,0-0.1-0.5,0.4,0c0.5,0.5,0.9,1,1.1,1c0.3,0,1,0.6,1,1.2c0,0.6-0.3,5.9-0.3,5.9s-0.5,0.6-0.7,0.9c-0.2,0.3-1.6,1.8-2,2.2
	c-0.4,0.4-2.5,1.7-2.5,1.7s-0.5,2-0.8,2.5c-0.2,0.5-1.1,3.4-1.2,3.7c-0.1,0.3-0.3,1.6-0.6,1.9c-0.3,0.3-0.5,0.7-0.5,1
	c0,0.3,0.2,1.3,0.4,1.7c0.2,0.4,2.2,3.8,2.5,4.7c0.4,1,1,1.4,1,2.2s0.1,7,0,7.7c-0.1,0.7-0.3,0.3-0.3,0.5c0,0.2,0.3,0.7,0.4,0.8
	c0,0.1,0.4,0.4,0.6,0.4c0.2,0,17.4,0,17.4,0s-1.3-4.3-1.5-4.6c-0.2-0.3-0.2-1.7-0.1-2.2c0.1-0.5,0.5-0.8,0.6-1.1
	c0-0.3,0.3-2.4,0.3-2.6c0-0.3,1.1-2.7,1.2-2.9c0-0.2,0.1-1.5,0-1.5c-0.1,0-2.1-0.1-2.3-0.2c-0.1-0.1,0-7.6,0-7.6l-1.9-1.8
	c0,0-0.2-0.1-0.1-1L36,23.2c0,0-0.1-0.4-0.1-1c0-0.6,0-5,0-5l-1.4-1.7v-1.3c0,0,0.3-0.5,0.5,0.1l0.1,0.8l0.4,0.5v-1.3
	c0,0,0.3-0.1,0.3,0.1c0,0.2,0.2,1.3,0.2,1.4c0,0,1,0.3,1,0.8c0,0.5-0.1,0.8-0.1,1c0,0.3,0.6,4.2,0.6,4.6c0,0.4,0.3,0.6,0.3,0.6
	s1.3,0.9,2,1.5c0.7,0.6,1,0.7,1.1,0.7c0,0-0.5-0.8-0.4-1.4c0.1-0.6,0.5-1.5,1-1.9c0.4-0.3,0.8-0.7,1.2-0.7c0.5,0,0.9,0.4,1.1,0.5
	c0.2,0.1,1.2,0.9,1.4,1.3c0.3,0.5,0.4,0.5,0.4,0.7v0.6c0,0,0.9,0,1.2,0.3c0.3,0.3,2,1.4,2.3,1.6c0.2,0.1,0.6,0.2,0.5,0.5
	c0,0.3-0.6,1-0.6,1.2C49,28,50,28,50,28.5c0,0.5,0.2,0.9,0,1.3c-0.2,0.4-0.5,0.2-1,0c-0.5-0.2-1.6-0.6-1.6-0.6s0.5,1.4,0.5,1.9
	c0,0.4,0.5,1.8,0.5,1.9c0,0.1,0.5,0.6,0.5,0.6v1.4c0,0,1.6,3,1.8,3.8c0.2,0.7,1.2,2.3,1.2,2.7c0,0.4,0.7,0.7,0.9,1
	c0.2,0.3,1.3,2.3,1.6,2.7c0.4,0.4,1.3,1.6,1.3,1.9c0,0.3-0.1,0.6,0,0.8c0.1,0.1,1.6,1.3,1.5,1.6c0,0.3-0.2,1.3,0,1.5
	c0.2,0.2,0.3,0.4,0.8,0.4c0.5,0,9.1,0,9.1,0"/>
<path class="st0" d="M223.6,29.3V28l1.8-0.7L223.6,29.3z M213.9,41.7v3.1l-1.1,0.2v-2.2L213.9,41.7z M212.5,41.5V42l1.2-1.2v-0.6
	L212.5,41.5z M215.6,37.6v1.2l-1.3,1.5l0-0.9L215.6,37.6z M219.4,32.9v1.7l2.6-3v-1.8L219.4,32.9z M216.4,36.6v1.5l2.3-2.8v-1.4
	L216.4,36.6z M219.5,40.5l1.2,2.4 M214.5,42.9l1.1,1.7 M216.5,41.5l1.5,2.8 M221.6,43.7h0.7l0.5-1.4l0.2-3.3l-0.4-1.5L221.6,43.7z
	 M227.9,41.1l0.5-1.3v-1.4l-1.4-4.8L227.9,41.1z M230.6,27.4l0.4,4.4l1.3-3.8L230.6,27.4z M252.4,38.3l1-1.2v1.1L252.4,38.3z
	 M252.4,33.7l0.9,1.4l0.2-0.7v-0.7H252.4z M248.1,39.2l3.4-5.3l1.6,2.2l-1.8,2.4L248.1,39.2z M247.9,32.4l1.7,0.5l-1.1,4.2l-1.4,2.2
	l-3.4,0.5L247.9,32.4z M230,41.1l1.1-0.2l-0.6-5.1l-0.6,1.9V41.1z M243.6,31.2l-3.2,6.1l-0.7,3.1l2.9-0.2l1.7-3.2l0.8-5.4
	L243.6,31.2z M238.6,29.8l-3.4,7.6v2l0.5,1.7l2.1-0.3l1.3-2.7l1.1-7.7L238.6,29.8z M233.2,28.3l-2,5.2l1,8.4h0.4l1.8-4.8l0.6-8.3
	L233.2,28.3z M216.1,44.5l-1.5,0.2l-0.2-3.7l1.5-1.5L216.1,44.5z M218.8,36.3v7.9l-2.1,0.3l-0.3-5.4L218.8,36.3z M219.4,35.5
	l2.4-2.5l-1.2,11l-1,0.2L219.4,35.5z M225.1,35.8l-0.2,4.1l-1,0.9L225.1,35.8z M226.4,36.3l-0.6,4.3l1.1,0.2L226.4,36.3z
	 M223.6,30.9l-0.1,7.9l2.1-8.2l-0.2-1.5L223.6,30.9z M250,33.1l-0.8,3.2l2.1-2.8L250,33.1z M245.7,31.8l-0.7,4l2.3-3.5L245.7,31.8z
	 M241,30.6l-0.7,5l2.4-4.6L241,30.6z M235.4,35.5l0.3-6.4l2,0.6L235.4,35.5z M227.5,26.6l2,0.6l-0.2,10l-0.4,1.1l-1.9-6.9
	L227.5,26.6z M256.9,37.4l2.2-0.3c0,0-0.1-2.1-0.4-2.4c-0.2-0.3-1.3-0.7-1.6,0C256.9,35.4,256.9,36.8,256.9,37.4z M237.2,51.3
	c0,0,5-7.7,16.1-11l-0.4,11.1L237.2,51.3z M202.8,51.3c0,0,1.5-3.4,3.5-3.9c2-0.5,4.4-0.7,5.3-0.6c0.9,0.1,2.4,0.7,3,1.3
	c0.5,0.6,1.2,1.2,2.5,3.2H202.8z M189.1,51.3c0,0,0-1.2,2.2-1.4c0,0,0.7,0.4,0.9,1.4L189.1,51.3z M165.7,51.3h5c0,0,1.4-0.4,1.9-0.9
	c0,0,0.4-0.2,0.7,0c0.3,0.2,0.5-0.4,1.4-0.1c0.9,0.3,1.5,0.5,2.1,0.5c0.6,0,2.2,0.2,2.7,0.2c0.5,0,1.5-0.2,1.7-0.4
	c0.2-0.2,0.4,0,0.6,0.2c0.2,0.1,0.5,0,0.5,0v-1v-0.5h0.7v-0.8c0,0,1-2.4,1.9-4.7h2.2l2.6,4.1h1.3l3.9-8.4l2.5-1.1h2l6.5,6l1.7-0.8
	l2.6,0l12.5-16.5l4.4-2.2l2.6,0.3l22.8,7.2l2.6-1l6.2,0.4V32l-0.6,0.5l0.6,18.4c0,0,0.1,0.2,0.4,0.4h6.1"/>
<path class="st0" d="M82.2,49.5h-1.8l-0.5,0.2l-4.8-0.1c0,0-0.4,0.2-0.4-0.3v-1.4h-0.2v-0.9h0.2v-6.6c0,0,0,0,0.1-0.6
	c0.2-0.6,1.7-5.4,1.7-5.4v-0.7c0,0,0.5-1.3,1.2-2c0,0,0.7-0.9,1-1.1c0.3-0.2,1-0.7,1.3-0.8c0.3-0.1,1.4-0.4,1.7-0.4h6.5v0.9h0.6
	v12.7h-0.6v3h7l0.6-0.5L95.5,45v-0.6h-4.1V28.7h69.9v15.7H161v5.2h-0.8v-2c0,0,0.1-0.2-0.3-0.2c-0.4,0-0.3,0.2-0.3,0.2v0.3h-0.4
	v-2.4l-3,0c0,0,0.7,0.7,0.8,1.7c0,1,0,2.4,0,2.4h-2.5l-3.1-1.9h-16.8c0,0,0-1.5,0.6-2h-2.7v3.1c0,0,0,0.4-0.4,0.4
	c-0.4,0-18.6,0-18.6,0s-0.3-0.1-0.3-0.4v-3l-2.3-1l-0.7-0.5h-8.9v0.2h1.2l0.4,0.6h2c0,0,1.3,0.5,1.4,1.8h0.6v2.8h-0.5
	c0,0,0.1-1.4-0.4-1.8c-0.5-0.4-5.2,0-5.2,0V49h-1.3v0.6h-8c0,0-0.2,0.7-1,0.7s-1.2-0.7-1.2-0.7h-6L82.2,49.5z M66.9,51.3h16.6"/>
</svg>
