<svg id="Layer_1" xmlns="http://www.w3.org/2000/svg" xmlns:xlink="http://www.w3.org/1999/xlink" viewBox="0 0 555.4 204.1"><style>.st0{fill:none;stroke:#00A2E5;stroke-width:0.75;stroke-miterlimit:10;} .st1{fill:none;} .st2{clip-path:url(#SVGID_2_);} .st3{clip-path:url(#SVGID_6_);} .st4{clip-path:url(#SVGID_10_);} .st5{clip-path:url(#SVGID_14_);}</style><path class="st0" d="M247.9 108.5l47.9 23.6M381 146.2l84.2-31.1"/><circle class="st0" cx="508.5" cy="96.8" r="46.9"/><path class="st1" d="M-501.6-158.2H689v841.9H-501.6z"/><defs><path id="SVGID_1_" d="M114.3 75.8c0 35.8 29.1 64.9 64.9 64.9 35.8 0 64.9-29.1 64.9-64.9 0-35.8-29.1-64.9-64.9-64.9-35.9 0-64.9 29.1-64.9 64.9"/></defs><clipPath id="SVGID_2_"><use xlink:href="#SVGID_1_" overflow="visible"/></clipPath><g class="st2"><defs><path id="SVGID_3_" d="M113.2 9.9H245v131.8H113.2z"/></defs><clipPath id="SVGID_4_"><use xlink:href="#SVGID_3_" overflow="visible"/></clipPath><g clip-path="url(#SVGID_4_)"><image width="275" height="275" xlink:href="708C29731AA4B96B.jpg" transform="translate(113.21 9.893) scale(.4794)" overflow="visible"/></g></g><path class="st0" d="M111 109.2l-23.3 12.2"/><circle class="st0" cx="179.2" cy="75.8" r="75.8"/><circle class="st0" cx="46.9" cy="143.9" r="46.9"/><defs><path id="SVGID_5_" d="M18.4 115.4c-15.7 15.7-15.7 41.2 0 56.9 15.7 15.7 41.2 15.7 56.9 0 15.7-15.7 15.7-41.2 0-56.9-7.9-7.9-18.1-11.8-28.4-11.8-10.3 0-20.6 4-28.5 11.8"/></defs><clipPath id="SVGID_6_"><use xlink:href="#SVGID_5_" overflow="visible"/></clipPath><g class="st3"><defs><path id="SVGID_7_" d="M5.9 102.6h81.7v82.5H5.9z"/></defs><clipPath id="SVGID_8_"><use xlink:href="#SVGID_7_" overflow="visible"/></clipPath><g clip-path="url(#SVGID_8_)"><image width="171" height="172" xlink:href="708C29731AA4B969.jpg" transform="matrix(.478 0 0 .4794 5.87 102.597)" overflow="visible"/></g></g><g><circle class="st0" cx="335.4" cy="157.3" r="46.9"/><defs><path id="SVGID_9_" d="M307 128.8c-15.7 15.7-15.7 41.2 0 56.9 15.7 15.7 41.2 15.7 56.9 0 15.7-15.7 15.7-41.2 0-56.9-7.9-7.8-18.2-11.8-28.5-11.8s-20.6 4-28.4 11.8"/></defs><clipPath id="SVGID_10_"><use xlink:href="#SVGID_9_" overflow="visible"/></clipPath><g class="st4"><defs><path id="SVGID_11_" d="M294.4 116h81.7v82.4h-81.7z"/></defs><clipPath id="SVGID_12_"><use xlink:href="#SVGID_11_" overflow="visible"/></clipPath><g clip-path="url(#SVGID_12_)"><image width="171" height="172" xlink:href="708C29731AA4B96F.jpg" transform="matrix(.478 0 0 .4793 294.41 116.023)" overflow="visible"/></g></g></g><g><defs><path id="SVGID_13_" d="M480.1 68.4c-15.7 15.7-15.7 41.2 0 56.9 15.7 15.7 41.2 15.7 56.9 0 15.7-15.7 15.7-41.2 0-56.9-7.9-7.9-18.1-11.8-28.4-11.8-10.4 0-20.7 3.9-28.5 11.8"/></defs><clipPath id="SVGID_14_"><use xlink:href="#SVGID_13_" overflow="visible"/></clipPath><g class="st5"><defs><path id="SVGID_15_" d="M468.3 56.6h81.4V137h-81.4z"/></defs><clipPath id="SVGID_16_"><use xlink:href="#SVGID_15_" overflow="visible"/></clipPath><g clip-path="url(#SVGID_16_)"><image width="170" height="168" xlink:href="708C29731AA4B968.jpg" transform="matrix(.479 0 0 .479 468.31 56.576)" overflow="visible"/></g></g></g><text transform="translate(207.155 -41.473)" fill="#455560" font-family="Helvetica-Light" font-size="80"></text><text transform="translate(463.91 -85.806)"><tspan x="0" y="0" fill="#FFF" font-family="Helvetica-Bold" font-size="10"></tspan><tspan x="2.6" y="0" fill="#FFF" font-family="Helvetica-Bold" font-size="10"></tspan></text></svg>