<svg id="Layer_1" xmlns="http://www.w3.org/2000/svg" viewBox="0 0 263 50.8"><style>.st0{fill:none;stroke:#053F6D;stroke-width:0.5;stroke-miterlimit:10;}</style><path class="st0" d="M39.6 3.3c0 1.3-1.1 2.4-2.4 2.4-1.3 0-2.4-1.1-2.4-2.4C34.8 2 35.9.9 37.2.9c1.3-.1 2.4 1 2.4 2.4zM4.7 51.2s.4-1.4.6-1.7c.2-.3.6-1.2 1-1.7.3-.5 1.4-2.5 1.6-2.9.3-.3 1.2-1.1 1.4-1.4.1-.3 1-1.2 1.3-1.8.4-.6 2.9-4.4 3.5-4.6.6-.1.9-.3 1.2 0l2.7 2.7c.5.5 1.9 1.6 1.9 1.9 0 .3.5.8.6 1.3.1.5.3 1.5.2 2 0 .5-.2 4.4 0 4.8.2.3.1.6.2.6s.3.9 0 .9-16.2-.1-16.2-.1zm50.6.1S54 50 53.9 49.6c0-.4.3-.5 0-.8-.3-.3-2.9-2.3-3.3-3-.4-.7-.8-1.1-1.3-1.5-.5-.5-1.9-1.6-2-2-.1-.4-.4-1.1-.6-1.4-.2-.3-.7-.4-.7 0s-.6 1.8-.8 2.3c-.2.5-1 1.7-1.2 2-.3.3-.1 1.8 0 2.2.1.4.8 3.7.8 3.9 0 .3 10.5 0 10.5 0zm-62.8.2l8.8-.2s0-1 .3-1.4c.3-.4.5-.5.5-.5v-.9h.7s-.2-1.4 0-1.6c.2-.3 2.5-3.9 2.8-4l.3-.1s.6-1.4.7-1.6C6.7 41 7.9 39.4 8 39c.2-.4 1.8-3.9 2.1-4.4.3-.5 1.6-2.8 1.9-3.1.3-.3.1-.8.2-.9.1 0 .5-.5.5-.5l.2-.6s1-1 1.2-1.4c.2-.4.5-2.9.5-2.9s-1.5 1.4-1.8 1.5c-.2.1-1.1 0-1.1 0s-.5-1-.3-1.4c.2-.5 1.7-1.6 1.8-2 .1-.4.8-1.5 1-1.6.1-.1.4-.5.4-.5s.1-.5 0-1-.3-.6 0-1.8c.4-1.2 1.4-2.4 2.3-2.9 1-.5 1.8 0 1.8 0s1 .1 1.1.3c.1.2.8.9.8 1.2l.3.2v1.9s.4.5 0 .7c-.4.2-1 .7-1 1 0 .3.1.9.3 1 .1 0 1 0 1.7-.3s1.7-.4 1.9-.5c.2-.2 1.9-1.4 2.3-1.4 0 0 .4-2.1.6-2.5.2-.4.6-2.7.6-2.9 0-.2-2.1-1.1-2.1-1.1L24.1 12s-.2-.1.4 0l1 .5h1l-.5-1.1s-.1-.5.4 0 .9 1 1.1 1c.3 0 1 .6 1 1.2s-.3 5.9-.3 5.9-.5.6-.7.9c-.2.3-1.6 1.8-2 2.2-.4.4-2.5 1.7-2.5 1.7s-.5 2-.8 2.5c-.2.5-1.1 3.4-1.2 3.7-.1.3-.3 1.6-.6 1.9-.3.3-.5.7-.5 1 0 .3.2 1.3.4 1.7.2.4 2.2 3.8 2.5 4.7.4 1 1 1.4 1 2.2s.1 7 0 7.7c-.1.7-.3.3-.3.5s.3.7.4.8c0 .1.4.4.6.4h17.4s-1.3-4.3-1.5-4.6c-.2-.3-.2-1.7-.1-2.2.1-.5.5-.8.6-1.1 0-.3.3-2.4.3-2.6 0-.3 1.1-2.7 1.2-2.9 0-.2.1-1.5 0-1.5s-2.1-.1-2.3-.2c-.1-.1 0-7.6 0-7.6l-1.9-1.8s-.2-.1-.1-1L36 23.2s-.1-.4-.1-1v-5l-1.4-1.7v-1.3s.3-.5.5.1l.1.8.4.5v-1.3s.3-.1.3.1.2 1.3.2 1.4c0 0 1 .3 1 .8s-.1.8-.1 1c0 .3.6 4.2.6 4.6 0 .4.3.6.3.6s1.3.9 2 1.5 1 .7 1.1.7c0 0-.5-.8-.4-1.4.1-.6.5-1.5 1-1.9.4-.3.8-.7 1.2-.7.5 0 .9.4 1.1.5.2.1 1.2.9 1.4 1.3.3.5.4.5.4.7v.6s.9 0 1.2.3c.3.3 2 1.4 2.3 1.6.2.1.6.2.5.5 0 .3-.6 1-.6 1.2 0 .3 1 .3 1 .8s.2.9 0 1.3-.5.2-1 0-1.6-.6-1.6-.6.5 1.4.5 1.9c0 .4.5 1.8.5 1.9 0 .1.5.6.5.6V35s1.6 3 1.8 3.8c.2.7 1.2 2.3 1.2 2.7 0 .4.7.7.9 1 .2.3 1.3 2.3 1.6 2.7.4.4 1.3 1.6 1.3 1.9 0 .3-.1.6 0 .8.1.1 1.6 1.3 1.5 1.6 0 .3-.2 1.3 0 1.5.2.2.3.4.8.4h9.1M223.6 29.3V28l1.8-.7-1.8 2zm-9.7 12.4v3.1l-1.1.2v-2.2l1.1-1.1zm-1.4-.2v.5l1.2-1.2v-.6l-1.2 1.3zm3.1-3.9v1.2l-1.3 1.5v-.9l1.3-1.8zm3.8-4.7v1.7l2.6-3v-1.8l-2.6 3.1zm-3 3.7v1.5l2.3-2.8v-1.4l-2.3 2.7zm3.1 3.9l1.2 2.4m-6.2 0l1.1 1.7m.9-3.1l1.5 2.8m3.6-.6h.7l.5-1.4.2-3.3-.4-1.5-1 6.2zm6.3-2.6l.5-1.3v-1.4l-1.4-4.8.9 7.5zm2.7-13.7l.4 4.4 1.3-3.8-1.7-.6zm21.8 10.9l1-1.2v1.1l-1 .1zm0-4.6l.9 1.4.2-.7v-.7h-1.1zm-4.3 5.5l3.4-5.3 1.6 2.2-1.8 2.4-3.2.7zm-.2-6.8l1.7.5-1.1 4.2-1.4 2.2-3.4.5 4.2-7.4zM230 41.1l1.1-.2-.6-5.1-.6 1.9v3.4zm13.6-9.9l-3.2 6.1-.7 3.1 2.9-.2 1.7-3.2.8-5.4-1.5-.4zm-5-1.4l-3.4 7.6v2l.5 1.7 2.1-.3 1.3-2.7 1.1-7.7-1.6-.6zm-5.4-1.5l-2 5.2 1 8.4h.4l1.8-4.8.6-8.3-1.8-.5zm-17.1 16.2l-1.5.2-.2-3.7 1.5-1.5.2 5zm2.7-8.2v7.9l-2.1.3-.3-5.4 2.4-2.8zm.6-.8l2.4-2.5-1.2 11-1 .2-.2-8.7zm5.7.3l-.2 4.1-1 .9 1.2-5zm1.3.5l-.6 4.3 1.1.2-.5-4.5zm-2.8-5.4l-.1 7.9 2.1-8.2-.2-1.5-1.8 1.8zm26.4 2.2l-.8 3.2 2.1-2.8-1.3-.4zm-4.3-1.3l-.7 4 2.3-3.5-1.6-.5zm-4.7-1.2l-.7 5 2.4-4.6-1.7-.4zm-5.6 4.9l.3-6.4 2 .6-2.3 5.8zm-7.9-8.9l2 .6-.2 10-.4 1.1-1.9-6.9.5-4.8zm29.4 10.8l2.2-.3s-.1-2.1-.4-2.4c-.2-.3-1.3-.7-1.6 0-.2.7-.2 2.1-.2 2.7zm-19.7 13.9s5-7.7 16.1-11l-.4 11.1-15.7-.1zm-34.4 0s1.5-3.4 3.5-3.9 4.4-.7 5.3-.6c.9.1 2.4.7 3 1.3.5.6 1.2 1.2 2.5 3.2h-14.3zm-13.7 0s0-1.2 2.2-1.4c0 0 .7.4.9 1.4h-3.1zm-23.4 0h5s1.4-.4 1.9-.9c0 0 .4-.2.7 0 .3.2.5-.4 1.4-.1.9.3 1.5.5 2.1.5.6 0 2.2.2 2.7.2s1.5-.2 1.7-.4c.2-.2.4 0 .6.2.2.1.5 0 .5 0v-1.5h.7v-.8s1-2.4 1.9-4.7h2.2l2.6 4.1h1.3l3.9-8.4 2.5-1.1h2l6.5 6 1.7-.8h2.6l12.5-16.5 4.4-2.2 2.6.3 22.8 7.2 2.6-1 6.2.4v.2l-.6.5.6 18.4s.1.2.4.4h6.1M82.2 49.5h-1.8l-.5.2-4.8-.1s-.4.2-.4-.3v-1.4h-.2V47h.2v-6.6l.1-.6c.2-.6 1.7-5.4 1.7-5.4v-.7s.5-1.3 1.2-2c0 0 .7-.9 1-1.1.3-.2 1-.7 1.3-.8.3-.1 1.4-.4 1.7-.4h6.5v.9h.6V43h-.6v3h7l.6-.5-.3-.5v-.6h-4.1V28.7h69.9v15.7h-.3v5.2h-.8v-2s.1-.2-.3-.2-.3.2-.3.2v.3h-.4v-2.4h-3s.7.7.8 1.7v2.4h-2.5l-3.1-1.9h-16.8s0-1.5.6-2h-2.7v3.1s0 .4-.4.4h-18.6s-.3-.1-.3-.4v-3l-2.3-1-.7-.5h-8.9v.2h1.2l.4.6h2s1.3.5 1.4 1.8h.6v2.8h-.5s.1-1.4-.4-1.8c-.5-.4-5.2 0-5.2 0V49h-1.3v.6h-8s-.2.7-1 .7-1.2-.7-1.2-.7h-6l-1.1-.1zm-15.3 1.8h16.6"/></svg>