<svg id="Layer_1" xmlns="http://www.w3.org/2000/svg" viewBox="68 -69.6 185 188.6"><style>.st0{fill:#FFFFFF;}</style><path class="st0" d="M89.9-68.7h16.8L123.5-35h.1l-.1-33.8h11v49.6h-15.4l-17.4-33.9h-.1v33.9H89.9v-49.5zM142.9-68.7h13.2v19h15.6v-19h13.2v49.6h-13.2v-21.3h-15.6v21.2h-13.2v-49.5zM195.3-31.4c3.4 1.8 8.2 3.3 13.6 3.3 4.2 0 8.2-.9 8.2-4.8 0-9.2-23.4-3.4-23.4-21.4 0-12 11.6-15.3 21.6-15.3 4.8 0 9.4.7 12.8 1.8l-.9 10.2c-3.4-1.6-7.2-2.3-11-2.3-3.3 0-8.9.3-8.9 4.6 0 8 23.4 2.6 23.4 20.5 0 12.9-10.8 16.3-21.8 16.3-4.6 0-10.4-.7-14.8-2.1l1.2-10.8zM68-17h4.3S77.9-5.5 93.4-3.9s21.1-1.3 37.9-1.1c16.8.3 27.1 18.1 27.1 18.1 1.3 2.2 1.1 5.1.1 5.2-.9 0-6.4-11.5-25.1-12.9-18.7-1.3-26.2 7.5-44.3 2.1C70.9 2.2 68-17 68-17zM112.2 53.1h-3.7c-4.8-5.8-9.6-11.6-14.4-18.1H94v18.1h-4.1V27.9h3.7c4.8 5.8 9.6 11.5 14.4 18h.1v-18h4.1v25.2zM126.8 51.4c-1.3 1-3 2.2-4.6 2.2-2.8 0-5.1-2.2-5.1-5.5 0-3.4 2.5-5.4 6.7-6.6l4.2-1.3c-.3-1.7-1.7-2.7-3.3-2.7-2.1 0-3.5.8-4.8 1.8l-1.5-2.3c2.2-1.8 4.4-2.4 6.9-2.4 3.3 0 7.4 1.1 7.4 6.7v7.3c0 1.4.2 3.1.8 4.4h-5.1c-.4-.6-.5-1.7-.5-2.6l-1.1 1zm-1.5-7.9c-2.3.7-3.5 2.1-3.5 4.1 0 1.6 1 2.7 2.2 2.7 1.9 0 4.4-2.4 4-7.7l-2.7.9zM143.4 35.1h4.7v2.4h-4.7v8.9c0 3 .9 4.2 2.5 4.2 1 0 1.7-.3 2.3-.6l.8 2.4c-1.4.8-3.1 1.2-4.7 1.2-4 0-5.7-2.1-5.7-5.8V37.6h-2.5v-2.4h2.5v-4.3l4.8-1.1v5.3zM151.7 29.7c0-1.4 1.2-2.8 2.8-2.8 1.7 0 3 1.4 3 2.8 0 1.5-1.1 3-2.9 3-1.8 0-2.9-1.5-2.9-3zm5.2 5.4v18h-4.8v-18h4.8zM161.2 43.9c0-5.8 4.6-9.2 9.4-9.2 4.9 0 9.5 3.4 9.5 9.2 0 5.6-3.8 9.6-9.5 9.6-5.6 0-9.4-4-9.4-9.6zm13.8 0c0-3-1-6.6-4.4-6.6-3.3 0-4.4 3.6-4.4 6.6 0 3.2.9 7 4.4 7s4.4-3.9 4.4-7zM189.2 37.2c1.6-1.7 3.9-2.6 6.2-2.6 4.2 0 6.4 2.3 6.4 6.8V53H197V41.9c0-2.5-1.1-4.2-3.6-4.2-2.3 0-4.2 1.5-4.2 4.5v10.7h-4.8v-18h4.8v2.3zM215.9 51.4c-1.3 1-3 2.2-4.6 2.2-2.8 0-5.1-2.2-5.1-5.5 0-3.4 2.5-5.4 6.7-6.6l4.2-1.3c-.3-1.7-1.7-2.7-3.3-2.7-2.1 0-3.5.8-4.8 1.8l-1.5-2.3c2.2-1.8 4.4-2.4 6.9-2.4 3.3 0 7.4 1.1 7.4 6.7v7.3c0 1.4.2 3.1.8 4.4h-5.1c-.4-.6-.5-1.7-.5-2.6l-1.1 1zm-1.5-7.9c-2.3.7-3.5 2.1-3.5 4.1 0 1.6 1 2.7 2.2 2.7 1.9 0 4.4-2.4 4-7.7l-2.7.9zM226.8 53.1V26.6h4.8v26.5h-4.8zM108.3 64.3c-1.1-.8-2.6-1.4-4.1-1.4-2.1 0-3.3 1.2-3.3 2.7 0 1.7 1.8 2.9 4.7 5.3 3.4 2.7 5.2 4.8 5.2 7.9 0 3.2-3 6.8-8.7 6.8-2.6 0-5.5-.8-7.4-2.5l1.8-2.9c1.3 1 2.9 2 5.1 2 2.1 0 3.9-1.1 3.9-3.5 0-2.8-3.4-4.6-5.4-6.2-2.4-2-4.5-3.5-4.5-6.9s3.4-6.1 8-6.1c2.9 0 5.2 1 6.4 2.2l-1.7 2.6zM118.4 76.5c-.1 3.4 2.3 5.9 5.3 5.9 1.8 0 3.6-.6 4.8-1.4l1.4 2.5c-2.4 1.4-5 2-7.1 2-5.4 0-9.5-3.9-9.5-9.8 0-5.5 4-9.1 9.2-9.1 5.6 0 8 4.5 7.6 9.9h-11.7zm7.2-2.6c.2-2.7-.8-4.6-3.2-4.6-2.7 0-4 2.2-3.9 4.6h7.1zM138.8 70.3l1-1.4c.6-.8 1.6-2.2 3.1-2.2 1.1 0 2.2.6 3.2 1.6l-1.8 3.3c-.8-.4-1.3-.6-2.3-.6-1.7 0-3.3 1.3-3.3 5.2v8.9H134v-18h4.8v3.2zM154.9 85.1l-7.3-17.5 4.8-.9c1.5 4.1 3.1 8.3 4.6 13.3 1.6-5 3.3-9.2 4.9-13.3l4.1.8-7.8 17.6h-3.3zM168.2 61.7c0-1.4 1.2-2.8 2.8-2.8 1.7 0 3 1.4 3 2.8 0 1.5-1.1 3-2.9 3-1.8 0-2.9-1.5-2.9-3zm5.2 5.4v18h-4.8v-18h4.8zM192.4 84.1c-1.5.9-3.5 1.4-5.1 1.4-7.5 0-9.9-5.7-9.9-9.4 0-5 3.8-9.5 10.2-9.5 1.4 0 3.2.4 4.7 1.2l-1.2 2.8c-.5-.2-1-.4-1.6-.5-.5-.1-1.1-.2-1.6-.2-2.7 0-5.4 1.8-5.4 6 0 3.6 2.1 6.4 5.5 6.4 1.1 0 2.3-.3 3.5-.9l.9 2.7zM199.7 76.5c-.1 3.4 2.3 5.9 5.3 5.9 1.8 0 3.6-.6 4.8-1.4l1.4 2.5c-2.4 1.4-5 2-7.1 2-5.4 0-9.5-3.9-9.5-9.8 0-5.5 4-9.1 9.2-9.1 5.6 0 8 4.5 7.6 9.9h-11.7zm7.2-2.6c.2-2.7-.8-4.6-3.2-4.6-2.7 0-4 2.2-3.9 4.6h7.1zM225.1 70.5c-1.1-.8-2.2-1.2-3.1-1.2-1.1 0-2.2.6-2.2 1.8 0 1.4 1.7 2.3 3.7 3.7 2.6 1.9 3.3 3.8 3.3 5.4 0 2.5-2.8 5.2-6.7 5.2-2.5 0-4.3-.9-6-2.1l1.5-2.5c1.1.9 2.6 1.7 3.9 1.7 1.4 0 2.6-.7 2.6-2.2 0-1.7-1.9-2.6-3.6-3.9-2.1-1.4-3.5-2.8-3.5-5 0-2.8 2.7-5 6.3-5 2 0 3.9.5 5.2 1.7l-1.4 2.4zM253-17h-4.3s-5.6 11.5-21.1 13.1-21.1-1.3-37.9-1.1c-16.8.3-27.1 18.1-27.1 18.1-1.3 2-1 5.1-.1 5.2 1.1 0 6.4-11.5 25.1-12.9 18.7-1.3 26.2 7.5 44.3 2.1C250 2.2 253-17 253-17z"/><g><path class="st0" d="M103.4 97.9c-1.1-.8-2.6-1.4-4-1.4-2.1 0-3.3 1.2-3.3 2.6 0 1.6 1.8 2.9 4.7 5.2 3.4 2.7 5.2 4.8 5.2 7.9 0 3.2-3 6.8-8.7 6.8-2.6 0-5.5-.8-7.4-2.5l1.8-2.9c1.3 1 2.9 2 5.1 2 2.1 0 3.9-1.1 3.9-3.5 0-2.8-3.4-4.6-5.4-6.2-2.4-2-4.5-3.5-4.5-6.8 0-3.4 3.4-6.1 7.9-6.1 2.9 0 5.2 1 6.3 2.2l-1.6 2.7zM124.3 117.6c-1.5.9-3.5 1.4-5.1 1.4-7.4 0-9.9-5.7-9.9-9.3 0-5 3.8-9.5 10.1-9.5 1.4 0 3.2.4 4.7 1.2l-1.1 2.8c-.5-.2-1-.4-1.6-.5-.5-.1-1.1-.2-1.6-.2-2.7 0-5.4 1.8-5.4 6 0 3.6 2 6.3 5.4 6.3 1.1 0 2.3-.3 3.5-.9l1 2.7zM126.4 109.4c0-5.8 4.6-9.2 9.4-9.2s9.4 3.4 9.4 9.2c0 5.5-3.8 9.6-9.4 9.6-5.6 0-9.4-4.1-9.4-9.6zm13.8 0c0-3-1-6.5-4.4-6.5-3.3 0-4.3 3.5-4.3 6.5 0 3.2.9 6.9 4.3 6.9 3.5 0 4.4-3.8 4.4-6.9zM154.7 100.7h4.7v2.4h-4.7v8.8c0 2.9.9 4.2 2.5 4.2 1 0 1.6-.3 2.3-.6l.8 2.4c-1.4.8-3.1 1.1-4.7 1.1-3.9 0-5.7-2.1-5.7-5.7v-10.2h-2.5v-2.4h2.5v-4.3l4.8-1.1v5.4zM163 118.6V92.3h4.8v26.3H163zM181.4 116.8c-1.3 1-2.9 2.1-4.6 2.1-2.8 0-5.1-2.1-5.1-5.4 0-3.4 2.5-5.3 6.6-6.5l4.2-1.3c-.3-1.6-1.7-2.7-3.3-2.7-2 0-3.5.8-4.7 1.8l-1.5-2.3c2.2-1.8 4.4-2.4 6.9-2.4 3.3 0 7.3 1.1 7.3 6.7v7.3c0 1.4.2 3.1.8 4.4h-5c-.4-.6-.5-1.6-.5-2.6l-1.1.9zm-1.5-7.8c-2.3.7-3.5 2.1-3.5 4.1 0 1.6 1 2.6 2.1 2.6 1.9 0 4.4-2.4 4-7.6l-2.6.9zM196.6 102.8c1.6-1.7 3.9-2.5 6.1-2.5 4.2 0 6.4 2.3 6.4 6.8v11.5h-4.8v-11c0-2.5-1.1-4.2-3.6-4.2-2.3 0-4.2 1.5-4.2 4.5v10.7h-4.8v-17.9h4.7v2.1h.2zM226.7 116c-1.3 1.5-3.1 3-5.9 3-4.7 0-7.8-3.9-7.8-9.6 0-4.7 3.4-9.2 8.2-9.2 2.3 0 4.4.9 5.5 2.5h.1V92.2h4.8v26.3h-4.8V116h-.1zm-8.6-6.7c0 3.5 1.4 6.8 4.1 6.8 3.2 0 4.5-3.4 4.5-7 0-3.1-1.5-6-4.3-6-3.1 0-4.3 2.7-4.3 6.2z"/></g></svg>