<svg id="Layer_1" xmlns="http://www.w3.org/2000/svg" viewBox="0 0 401.5 328.1"><style>.st0{fill:#DA3228;} .st1{fill:#004784;}</style><path class="st0" d="M270.1 64.9c-2.5-3.9-8.2-10-14.9-13.2-7.3-3.5-15.9-4.3-18.8-4.3-7.5 0-16.8 1.8-26.5 7.7-3.1 1.9-6.2 4.2-9 6.4-2.8-2.2-6-4.5-9.1-6.4-9.7-5.9-19.1-7.8-26.5-7.7-2.9 0-11.5.8-18.8 4.3-6.7 3.2-12.4 9.3-14.9 13.2-2.5 4-6.7 14-6.7 25 0 4.9.8 15 5.7 26 6.3 14.1 17.1 29.1 17.1 29.1 20.2 26.9 46.9 47.8 53 52.4 6.1-4.6 33-25.4 53.2-52.4 0 0 10.8-15 17.1-29.1 4.9-11.1 5.7-21.1 5.7-26 .1-11-4.1-21.1-6.6-25m-15.6 45.9c-3.5 7.8-8.3 15.9-14 23.6l-.3.1c-8.5 11.4-18.6 22.2-27.8 30.6-4.1 3.8-8.2 7.1-11.6 9.9-3.4-2.8-7.3-6.1-11.4-9.9-9.1-8.4-19.3-19.2-27.8-30.6l-.2-.1c-5.7-7.6-10.5-15.7-14-23.6-1.9-4.2-4.8-13.1-4.9-21-.1-6.9 2.5-13 4.1-15.3 3-4.5 8-6.9 9.5-7.7 3.1-1.6 9.6-1.8 9.6-1.8 10.4 0 16.7 3.2 23.5 8 3.4 2.4 11.8 11.5 11.9 11.6.1-.1 8.5-9.3 11.9-11.6 6.8-4.8 13.1-8 23.5-8 0 0 6.4.2 9.6 1.8 1.5.8 6.4 3.2 9.5 7.7 1.5 2.2 4.1 8.3 4.1 15.3-.4 7.9-3.3 16.8-5.2 21"/><path class="st1" d="M385.6 322.7h-3v-14h5.2c3.6 0 5.8 1 5.8 4.2 0 2.6-1.5 3.5-3.4 3.6l3.6 6.1h-3.6l-3.2-5.9h-1.4v6zm2.6-8.2c1.3 0 2.1-.3 2.1-1.8 0-1.4-1.5-1.5-2.7-1.5h-2.1v3.4h2.7zm-82.3 3.3l-105.1-90.9-105 90.9h26.6l78.4-67.9 78.5 67.9h26.6zM77 297.1l106.2-84.7-105-89.9-.1 22.8 77.8 66.6L77 274.8v22.3zm247.7-22.3l-78.8-62.9 77.8-66.6-.1-22.9-105 89.9L324.8 297l-.1-22.2zm-268 39.6c4.4-3.6 4.9-7.8 1.3-12.8-3.9-5.4-8.3-6.7-12.1-4-1.7 1.2-2.6 2.8-2.7 4.8-.1 1.5.6 3.4 1.4 6.2 1.2 3.7 2 5.4.5 6.5-1 .7-2.5.2-3.7-1.4-1.4-2-1.3-3.6.3-5.1l-3.3-4.6c-3.8 2.7-4.3 7.4-.9 12 3.5 4.8 7.9 5.9 11.5 3.4 2.4-1.7 3.2-4.5 2.3-8-.9-3.6-2.1-6.1-2.3-7.6-.1-.6.2-1.3.8-1.7 1.2-.8 2.7-.3 4.2 1.8 1.7 2.4 1.4 4.4-.7 6l3.4 4.5zm-10.3-31.1c-2.8-5.1-7.5-6.8-12.9-4.8l2.7 4.9c2.4-.9 4.4 0 5.7 2.3 1.6 2.9.3 5.9-3.8 8.2-4.2 2.3-7.6 1.7-9.2-1.2-1.2-2.2-1-4.1.8-5.7l-2.8-5c-4.3 3-5.3 7.9-2.5 12.9 3.5 6.3 10.1 8 16.8 4.4 6.4-3.6 8.5-10 5.2-16m-32.6-10.9c-2.6-6.7.1-12.8 7.3-15.6 7.2-2.8 13.3-.2 16 6.5 2.6 6.8-.1 12.7-7.3 15.5-7.3 2.9-13.4.4-16-6.4m18.6-7.2c-1.3-3.4-4.5-4.4-9-2.6-4.5 1.8-6.2 4.7-4.9 8 1.3 3.4 4.5 4.3 9 2.6 4.5-1.8 6.2-4.7 4.9-8M31 247.8l-1.6-5.8-18.2 4.8-1.8-6.6-4.6 1.2 5.1 18.9 4.6-1.2-1.7-6.5 18.2-4.8zM1.5 220.7l3 19.3 4.8-.7-1-6.7 18.6-2.9-.9-6-18.7 2.9-1-6.7-4.8.8zm-.4-7.9l.5 6 23.6-1.9-.5-6-23.6 1.9zm15.5-2.8c5.7-.4 8.5-3.7 8.4-9.8-.1-6.6-3-10.2-7.7-10.1-2 0-3.7.8-5 2.4-.9 1.2-1.5 3.1-2.3 5.9-1.2 3.7-1.5 5.6-3.3 5.6-1.2 0-2.2-1.2-2.2-3.2 0-2.4 1-3.7 3.2-4V191c-4.7.1-7.8 3.6-7.7 9.4.1 5.9 3.1 9.4 7.6 9.3 2.9 0 5.2-1.8 6.5-5.3 1.3-3.5 1.8-6.2 2.5-7.6.3-.6.9-.9 1.7-.9 1.5 0 2.4 1.3 2.4 3.8 0 2.9-1.3 4.4-4 4.5l-.1 5.8zM2.5 172l8.3 1-1 8.2-8.3-1-.7 6 23.5 2.8.7-6-9.9-1.2 1-8.2 9.9 1.2.7-6L3.3 166l-.8 6zm26.1-12.1l1.7-5.6-6.9-2c-1.8-.5-4.4-1.2-7.6-1.9 3.1-.6 5.7-1.2 7.8-1.7l9-2.2 1.9-6.3-22.7-6.6-1.7 5.6 5.8 1.7c1.9.6 4.9 1.4 8.9 2.3-2.6.4-5.4 1-8.3 1.7L7.7 147l-1.9 6.3 22.8 6.6zm-9.8-43.2l25.1 1.8-2.6 5.9-4.6-.4-3.2 7.2 3.4 3-2.5 5.7-18.3-17.2 2.7-6zm12.9 6.5l-8.5-.9 6.5 5.6 2-4.7zm14-7.4l3-5.2-16.4-9.3 3.4-5.9-4.2-2.4-9.7 17 4.2 2.4 3.4-5.9 16.3 9.3zm6.7-11.1l3.4-5L36 86.6l-3.4 5 19.8 13.1zm-7.7-30.6c4.6-5.6 11.2-6.2 17.2-1.4 6 4.8 6.8 11.4 2.2 17S52.9 95.9 46.9 91c-5.9-4.8-6.8-11.3-2.2-16.9m15.5 12.5c2.3-2.8 1.6-6.1-2.2-9.1-3.8-3.1-7.1-3.1-9.4-.3-2.3 2.8-1.6 6 2.2 9.1 3.8 3.1 7.1 3.1 9.4.3m11.7-7.2l4.3-4-4.9-5.2c-1.3-1.4-3.2-3.2-5.6-5.4 3 1 5.6 1.8 7.6 2.4l8.9 2.6 4.8-4.5-16.5-17-4.3 4 4.2 4.4c1.4 1.4 3.5 3.6 6.5 6.4-2.5-.9-5.2-1.8-8-2.7l-8.6-2.5-4.7 4.5 16.3 17zm13.6-42.5L106.2 51l-5.3 3.8-3.7-2.6-6.4 4.6 1.5 4.3-5.1 3.7-7.1-24 5.4-3.9zM93.3 49l-6.9-5 2.8 8.1 4.1-3.1zm13.5 1.9l15.3-8.7-2.5-4.4-10 5.7-9.2-16-5.3 3 11.7 20.4zm13-33.6l10.7-4.1c5.1-1.9 8.2-1.1 9.7 2.7.9 2.4.4 4.3-1.5 6 2.8-.3 4.9.9 5.9 3.4s.6 5-1 6.9c-1.4 1.6-3.6 2.6-6.6 3.7l-8.6 3.3-8.6-21.9zm13.3 4.8c1.9-.7 2.6-1.8 2-3.2-.5-1.3-1.7-1.7-3.4-1l-4.8 1.8 1.6 4.2 4.6-1.8zm3.2 9.1c2.5-.9 3.5-1.9 2.7-3.8-.6-1.6-2-2-4-1.2l-4.9 1.9L132 33l4.3-1.8zm11.7.8l17-4.5-1.3-4.9-11.1 2.9-4.8-17.8-5.9 1.6L148 32zm24.6-30.1c7.2-1 12.5 3.1 13.5 10.6 1.1 7.6-2.9 13-10.1 14-7.2 1-12.4-3.1-13.5-10.7-1-7.5 2.9-12.8 10.1-13.9m2.7 19.7c3.6-.5 5.3-3.4 4.6-8.2-.7-4.8-3.1-7.1-6.7-6.6s-5.3 3.3-4.6 8.2c.7 4.9 3.2 7.1 6.7 6.6m24-21.6c7.3-.1 12 4.6 12.1 12.2.1 7.7-4.4 12.5-11.7 12.6-7.3.1-11.9-4.6-12.1-12.2C187.5 5 192 .1 199.3 0m.3 19.9c3.7-.1 5.7-2.7 5.6-7.5-.1-4.9-2.2-7.4-5.9-7.3-3.6.1-5.7 2.7-5.6 7.5.2 4.8 2.3 7.3 5.9 7.3m15.3-19l10 1.2c7 .8 10.3 5.5 9.4 13-.9 7.8-5.2 11.2-13 10.3l-9.2-1.1L214.9.9zm7.1 19.6c3.7.4 5.7-1.5 6.2-6.1.6-4.7-.9-7-4.6-7.4l-3.3-.4-1.6 13.5 3.3.4zm23.4 9.3l5.8 1.6 5.1-18.1 6.6 1.8 1.3-4.6-18.9-5.3-1.3 4.7 6.5 1.8-5.1 18.1zm21.3-18.3l10.5 4.2c5.5 2.2 7.4 5.1 5.7 9.3-1 2.5-2.8 3.7-5.6 4 2 1.9 1.7 3.4.8 6-.9 2.7-1.8 4.2-1 5.2l-.3.8-5.9-2.4c.1-2.1 1.1-3.9 1.7-6 .5-1.8-.1-2.9-2-3.7l-3.8-1.5-3.3 8.2-5.6-2.3 8.8-21.8zm6 13.2c2.3.9 3.6.5 4.4-1.3.7-1.6-.1-2.8-2.2-3.6l-4.3-1.7-2 5 4.1 1.6zm29 3.1l-4.3 24.6-5.7-3.2.9-4.5-6.9-3.9-3.3 3.1-5.5-3.1L296 24.4l5.7 3.4zm-7.8 12l1.7-8.4-6.2 5.8 4.5 2.6zm3.7 12.8l4.7 3.5 4.3-5.7c1.1-1.5 2.6-3.7 4.4-6.5-.5 3.1-.9 5.8-1.1 7.8l-1 9.1 5.3 3.9 14.1-18.9-4.7-3.5-3.6 4.8c-1.2 1.6-3 4.1-5.2 7.5.5-2.6.9-5.4 1.3-8.3l1-8.9-5.3-3.9-14.2 19.1zm22.6 7.1c-3.7 4.4-3.3 8.6 1.2 12.8 4.8 4.6 9.4 5 12.6 1.7 1.4-1.5 2-3.3 1.7-5.2-.2-1.5-1.2-3.3-2.6-5.8-1.9-3.4-2.9-5-1.7-6.2.8-.9 2.4-.7 3.9.7 1.8 1.7 2 3.3.7 5.1l4.1 3.9c3.2-3.4 2.8-8.1-1.4-12-4.3-4.1-8.9-4.3-12-1.1-2 2.1-2.3 5-.7 8.3 1.6 3.4 3.2 5.6 3.7 7 .2.6.1 1.3-.5 1.8-1 1.1-2.6.8-4.4-1-2.1-2-2.3-4-.4-6l-4.2-4zm9.7 20.3l3.9 4.6 6.8-5.8 6.2 7.2 3.7-3.2-6.2-7.2 3.7-3.2 7.1 8.3 3.7-3.2-11-12.9L329.9 80zm30.9-.2l-11.6 7.9c-2.9 2-4.6 3.8-5 6.4-.3 2.5.3 5 2.1 7.5 1.8 2.6 3.8 4.1 6.3 4.7 2.6.6 4.9-.3 7.8-2.3l11.6-7.9-3.4-5-12.2 8.3c-2.6 1.8-4.3 1.7-6-.7-1.7-2.4-1.1-4.1 1.5-5.8l12.2-8.3-3.3-4.8zm-1 26.6c-4.9 2.9-5.9 7.1-3.1 12.5 3.1 5.9 7.3 7.8 11.4 5.7 1.8-.9 3-2.4 3.4-4.4.3-1.4-.1-3.5-.5-6.3-.6-3.9-1.2-5.7.4-6.5 1.1-.5 2.5.1 3.4 1.9 1.1 2.2.8 3.8-1 5l2.6 5c4.2-2.2 5.3-6.7 2.6-11.8-2.7-5.2-7-7-10.9-4.9-2.6 1.3-3.8 4-3.4 7.6.4 3.7 1.2 6.3 1.2 7.9 0 .6-.4 1.2-1.1 1.6-1.3.7-2.7-.1-3.9-2.4-1.3-2.6-.8-4.5 1.6-5.8l-2.7-5.1zm2.4 22.4l2.3 5.6 21.8-9.1-2.3-5.6-21.8 9.1zm29.9 10.5c2.2 6.9-.9 12.7-8.3 15.1-7.3 2.3-13.3-.7-15.5-7.6-2.2-6.9 1-12.7 8.3-15 7.4-2.3 13.3.6 15.5 7.5m-19 6c1.1 3.5 4.2 4.7 8.9 3.2 4.6-1.5 6.5-4.2 5.4-7.7-1.1-3.4-4.2-4.6-8.9-3.2-4.7 1.5-6.5 4.3-5.4 7.7m-.4 13.6l1 5.7 7-1.2c1.9-.3 4.5-.9 7.7-1.7-2.5 1.9-4.6 3.6-6.2 5l-7.1 5.9 1.1 6.4 23.3-4.1-1-5.7-6 1c-1.9.3-5 .9-9 1.8 2.2-1.5 4.4-3.3 6.7-5.1l6.9-5.7-1.1-6.4-23.3 4.1zm12.1 28c-5.7.5-8.5 3.7-8.4 9.8.1 6.6 3 10.2 7.6 10.1 2 0 3.7-.9 5-2.4.9-1.2 1.5-3.1 2.3-5.9 1.2-3.7 1.5-5.6 3.3-5.6 1.2 0 2.2 1.2 2.2 3.2 0 2.4-1 3.7-3.2 4l.1 5.7c4.7-.1 7.8-3.6 7.7-9.4-.1-5.9-3.1-9.4-7.6-9.3-2.9 0-5.2 1.9-6.5 5.3-1.3 3.5-1.7 6.2-2.5 7.6-.3.6-.9.9-1.7.9-1.4 0-2.4-1.3-2.4-3.8 0-2.9 1.3-4.4 4-4.5l.1-5.7zm-9.4 39.2l4.8.5 1.2-12.2 5 .5-1 10.8 4.7.4 1-10.8 4.2.4-1.1 11.8 4.8.5 1.7-17.8-23.6-2.2-1.7 18.1zm23 5.9l-2.4 11c-1.2 5.8-3.8 8.1-8.3 7.1-2.6-.5-4.2-2.1-4.9-4.8-1.5 2.3-3 2.2-5.8 1.8-2.9-.4-4.4-1.1-5.3-.1l-.8-.2 1.3-6.2c2.1-.3 4.1.4 6.2.6 1.9.2 2.9-.6 3.3-2.7l.8-3.9-8.7-1.8 1.3-5.9 23.3 5.1zm-12.1 8.2c-.5 2.4.1 3.6 2 4 1.7.4 2.8-.6 3.2-2.8l1-4.6-5.3-1.1-.9 4.5zM369 252.8l-1.8 5.3 19.9 15.2 2-6-10.8-7.3c-1.5-1-2.7-1.8-3.7-2.4 2.1.2 3.7.2 4.8.3l12.6.7 2-6.1-25 .3zm-4.6 12.5l-2.4 5.5 21.8 9.2 2.4-5.6-21.8-9.1zm-8.5 16.6c-2.7 5.1-1.6 10 3 13.3l2.6-5c-2.1-1.5-2.5-3.6-1.2-6 1.5-2.9 4.8-3.5 8.9-1.3 4.2 2.2 5.6 5.4 4.1 8.3-1.2 2.2-2.9 3.1-5.2 2.5l-2.7 5c4.9 2 9.5.1 12.2-5 3.4-6.4 1.2-12.8-5.6-16.4-6.4-3.3-12.9-1.5-16.1 4.6m-4.9 10.2l-10.4 15.1 4 2.7 7-10.1 4.2 2.9-6.2 8.9 3.9 2.7 6.2-8.9 3.4 2.4-6.8 9.8 4 2.7 10.2-14.7-19.5-13.5zm24.1 23.7c0-6.8 5.5-12.3 12.3-12.3 6.8 0 12.3 5.5 12.3 12.3 0 6.8-5.5 12.3-12.3 12.3-6.8 0-12.3-5.5-12.3-12.3m3.2 0c0 5 4.1 9.1 9.2 9.1 5 0 9.1-4.1 9.1-9.1s-4.1-9.1-9.1-9.1c-5.1 0-9.2 4.1-9.2 9.1"/></svg>