<?xml version="1.0" encoding="utf-8"?>
<!-- Generator: Adobe Illustrator 19.1.0, SVG Export Plug-In . SVG Version: 6.00 Build 0)  -->
<svg version="1.1" id="Layer_1" xmlns="http://www.w3.org/2000/svg" xmlns:xlink="http://www.w3.org/1999/xlink" x="0px" y="0px"
	 viewBox="0 0 555.4 204.1" style="enable-background:new 0 0 555.4 204.1;" xml:space="preserve">
<style type="text/css">
	.st0{fill:none;stroke:#00A2E5;stroke-width:0.75;stroke-miterlimit:10;}
	.st1{fill:none;}
	.st2{clip-path:url(#SVGID_2_);}
	.st3{clip-path:url(#SVGID_6_);}
	.st4{clip-path:url(#SVGID_10_);}
	.st5{clip-path:url(#SVGID_14_);}
</style>
<line class="st0" x1="247.9" y1="108.5" x2="295.8" y2="132.1"/>
<line class="st0" x1="381" y1="146.2" x2="465.2" y2="115.1"/>
<circle class="st0" cx="508.5" cy="96.8" r="46.9"/>
<rect x="-501.6" y="-158.2" class="st1" width="1190.6" height="841.9"/>
<g>
	<defs>
		<path id="SVGID_1_" d="M114.3,75.8c0,35.8,29.1,64.9,64.9,64.9c35.8,0,64.9-29.1,64.9-64.9c0-35.8-29.1-64.9-64.9-64.9
			C143.3,10.9,114.3,40,114.3,75.8"/>
	</defs>
	<clipPath id="SVGID_2_">
		<use xlink:href="#SVGID_1_"  style="overflow:visible;"/>
	</clipPath>
	<g class="st2">
		<defs>
			<rect id="SVGID_3_" x="113.2" y="9.9" width="131.8" height="131.8"/>
		</defs>
		<clipPath id="SVGID_4_">
			<use xlink:href="#SVGID_3_"  style="overflow:visible;"/>
		</clipPath>
		<g style="clip-path:url(#SVGID_4_);">
			
				<image style="overflow:visible;" width="275" height="275" xlink:href="708C29731AA4B96B.jpg"  transform="matrix(0.4794 0 0 0.4794 113.2099 9.8928)">
			</image>
		</g>
	</g>
</g>
<line class="st0" x1="111" y1="109.2" x2="87.7" y2="121.4"/>
<circle class="st0" cx="179.2" cy="75.8" r="75.8"/>
<g>
	<circle class="st0" cx="46.9" cy="143.9" r="46.9"/>
	<g>
		<defs>
			<path id="SVGID_5_" d="M18.4,115.4c-15.7,15.7-15.7,41.2,0,56.9c15.7,15.7,41.2,15.7,56.9,0c15.7-15.7,15.7-41.2,0-56.9
				c-7.9-7.9-18.1-11.8-28.4-11.8C36.6,103.6,26.3,107.6,18.4,115.4"/>
		</defs>
		<clipPath id="SVGID_6_">
			<use xlink:href="#SVGID_5_"  style="overflow:visible;"/>
		</clipPath>
		<g class="st3">
			<defs>
				<rect id="SVGID_7_" x="5.9" y="102.6" width="81.7" height="82.5"/>
			</defs>
			<clipPath id="SVGID_8_">
				<use xlink:href="#SVGID_7_"  style="overflow:visible;"/>
			</clipPath>
			<g transform="matrix(1 0 0 1 0 0)" style="clip-path:url(#SVGID_8_);">
				
					<image style="overflow:visible;" width="171" height="172" xlink:href="708C29731AA4B969.jpg"  transform="matrix(0.4779 0 0 0.4794 5.8698 102.597)">
				</image>
			</g>
		</g>
	</g>
</g>
<g>
	<circle class="st0" cx="335.4" cy="157.3" r="46.9"/>
	<g>
		<defs>
			<path id="SVGID_9_" d="M307,128.8c-15.7,15.7-15.7,41.2,0,56.9c15.7,15.7,41.2,15.7,56.9,0c15.7-15.7,15.7-41.2,0-56.9
				C356,121,345.7,117,335.4,117C325.1,117,314.8,121,307,128.8"/>
		</defs>
		<clipPath id="SVGID_10_">
			<use xlink:href="#SVGID_9_"  style="overflow:visible;"/>
		</clipPath>
		<g class="st4">
			<defs>
				<rect id="SVGID_11_" x="294.4" y="116" width="81.7" height="82.4"/>
			</defs>
			<clipPath id="SVGID_12_">
				<use xlink:href="#SVGID_11_"  style="overflow:visible;"/>
			</clipPath>
			<g transform="matrix(1 0 0 1 0 0)" style="clip-path:url(#SVGID_12_);">
				
					<image style="overflow:visible;" width="171" height="172" xlink:href="708C29731AA4B96F.jpg"  transform="matrix(0.4779 0 0 0.4793 294.4086 116.0235)">
				</image>
			</g>
		</g>
	</g>
</g>
<g>
	<defs>
		<path id="SVGID_13_" d="M480.1,68.4c-15.7,15.7-15.7,41.2,0,56.9c15.7,15.7,41.2,15.7,56.9,0c15.7-15.7,15.7-41.2,0-56.9
			c-7.9-7.9-18.1-11.8-28.4-11.8C498.2,56.6,487.9,60.5,480.1,68.4"/>
	</defs>
	<clipPath id="SVGID_14_">
		<use xlink:href="#SVGID_13_"  style="overflow:visible;"/>
	</clipPath>
	<g class="st5">
		<defs>
			<rect id="SVGID_15_" x="468.3" y="56.6" width="81.4" height="80.4"/>
		</defs>
		<clipPath id="SVGID_16_">
			<use xlink:href="#SVGID_15_"  style="overflow:visible;"/>
		</clipPath>
		<g style="clip-path:url(#SVGID_16_);">
			
				<image style="overflow:visible;" width="170" height="168" xlink:href="708C29731AA4B968.jpg"  transform="matrix(0.4791 0 0 0.4789 468.3101 56.5762)">
			</image>
		</g>
	</g>
</g>
<text transform="matrix(1 0 0 1 207.1552 -41.4733)" style="fill:#455560; font-family:'Helvetica-Light'; font-size:80px;"> </text>
<text transform="matrix(1 0 0 1 463.9091 -85.8063)"><tspan x="0" y="0" style="fill:#FFFFFF; font-family:'Helvetica-Bold'; font-size:10px;"> </tspan><tspan x="2.6" y="0" style="fill:#FFFFFF; font-family:'Helvetica-Bold'; font-size:10px;"> </tspan></text>
</svg>
