<?xml version="1.0" encoding="utf-8"?>
<!-- Generator: Adobe Illustrator 19.1.0, SVG Export Plug-In . SVG Version: 6.00 Build 0)  -->
<svg version="1.1" id="Layer_1" xmlns="http://www.w3.org/2000/svg" xmlns:xlink="http://www.w3.org/1999/xlink" x="0px" y="0px"
	 viewBox="0 0 185 188.6" style="enable-background:new 0 0 185 188.6;" xml:space="preserve">
<style type="text/css">
	.st0{fill:#004785;}
	.st1{fill:#00A2E5;}
</style>
<g>
	<g>
		<path class="st0" d="M21.9,0.9h16.8l16.8,33.7l0.1,0L55.5,0.8l11,0v49.6H51.1L33.7,16.5h-0.1l0,33.9l-11.7,0V0.9z"/>
		<path class="st0" d="M74.9,0.9h13.2v19h15.6v-19h13.2v49.6h-13.2V29.2H88.1v21.2H74.9V0.9z"/>
		<path class="st0" d="M127.3,38.2c3.4,1.8,8.2,3.3,13.6,3.3c4.2,0,8.2-0.9,8.2-4.8c0-9.2-23.4-3.4-23.4-21.4
			C125.7,3.3,137.3,0,147.3,0c4.8,0,9.4,0.7,12.8,1.8l-0.9,10.2c-3.4-1.6-7.2-2.3-11-2.3c-3.3,0-8.9,0.3-8.9,4.6
			c0,8,23.4,2.6,23.4,20.5c0,12.9-10.8,16.3-21.8,16.3c-4.6,0-10.4-0.7-14.8-2.1L127.3,38.2z"/>
	</g>
	<g>
		<path class="st1" d="M0,52.6h4.3c0,0,5.6,11.5,21.1,13.1c15.5,1.6,21.1-1.3,37.9-1.1c16.8,0.3,27.1,18.1,27.1,18.1
			c1.3,2.2,1.1,5.1,0.1,5.2c-0.9,0-6.4-11.5-25.1-12.9c-18.7-1.3-26.2,7.5-44.3,2.1C2.9,71.8,0,52.6,0,52.6z"/>
	</g>
	<g>
		<path class="st0" d="M44.2,122.7h-3.7c-4.8-5.8-9.6-11.6-14.4-18.1H26v18.1h-4.1V97.5h3.7c4.8,5.8,9.6,11.5,14.4,18h0.1v-18h4.1
			V122.7z"/>
		<path class="st0" d="M58.8,121c-1.3,1-3,2.2-4.6,2.2c-2.8,0-5.1-2.2-5.1-5.5c0-3.4,2.5-5.4,6.7-6.6l4.2-1.3
			c-0.3-1.7-1.7-2.7-3.3-2.7c-2.1,0-3.5,0.8-4.8,1.8l-1.5-2.3c2.2-1.8,4.4-2.4,6.9-2.4c3.3,0,7.4,1.1,7.4,6.7v7.3
			c0,1.4,0.2,3.1,0.8,4.4h-5.1c-0.4-0.6-0.5-1.7-0.5-2.6L58.8,121z M57.3,113.1c-2.3,0.7-3.5,2.1-3.5,4.1c0,1.6,1,2.7,2.2,2.7
			c1.9,0,4.4-2.4,4-7.7L57.3,113.1z"/>
		<path class="st0" d="M75.4,104.7h4.7v2.4h-4.7v8.9c0,3,0.9,4.2,2.5,4.2c1,0,1.7-0.3,2.3-0.6L81,122c-1.4,0.8-3.1,1.2-4.7,1.2
			c-4,0-5.7-2.1-5.7-5.8v-10.2h-2.5v-2.4h2.5v-4.3l4.8-1.1V104.7z"/>
		<path class="st0" d="M83.7,99.3c0-1.4,1.2-2.8,2.8-2.8c1.7,0,3,1.4,3,2.8c0,1.5-1.1,3-2.9,3C84.8,102.3,83.7,100.8,83.7,99.3z
			 M88.9,104.7v18h-4.8v-18H88.9z"/>
		<path class="st0" d="M93.2,113.5c0-5.8,4.6-9.2,9.4-9.2c4.9,0,9.5,3.4,9.5,9.2c0,5.6-3.8,9.6-9.5,9.6
			C97,123.1,93.2,119.1,93.2,113.5z M107,113.5c0-3-1-6.6-4.4-6.6c-3.3,0-4.4,3.6-4.4,6.6c0,3.2,0.9,7,4.4,7
			C106.1,120.5,107,116.6,107,113.5z"/>
		<path class="st0" d="M121.2,106.8c1.6-1.7,3.9-2.6,6.2-2.6c4.2,0,6.4,2.3,6.4,6.8v11.6H129v-11.1c0-2.5-1.1-4.2-3.6-4.2
			c-2.3,0-4.2,1.5-4.2,4.5v10.7h-4.8v-18h4.8V106.8z"/>
		<path class="st0" d="M147.9,121c-1.3,1-3,2.2-4.6,2.2c-2.8,0-5.1-2.2-5.1-5.5c0-3.4,2.5-5.4,6.7-6.6l4.2-1.3
			c-0.3-1.7-1.7-2.7-3.3-2.7c-2.1,0-3.5,0.8-4.8,1.8l-1.5-2.3c2.2-1.8,4.4-2.4,6.9-2.4c3.3,0,7.4,1.1,7.4,6.7v7.3
			c0,1.4,0.2,3.1,0.8,4.4h-5.1c-0.4-0.6-0.5-1.7-0.5-2.6L147.9,121z M146.4,113.1c-2.3,0.7-3.5,2.1-3.5,4.1c0,1.6,1,2.7,2.2,2.7
			c1.9,0,4.4-2.4,4-7.7L146.4,113.1z"/>
		<path class="st0" d="M158.8,122.7V96.2h4.8v26.5H158.8z"/>
		<path class="st0" d="M40.3,133.9c-1.1-0.8-2.6-1.4-4.1-1.4c-2.1,0-3.3,1.2-3.3,2.7c0,1.7,1.8,2.9,4.7,5.3c3.4,2.7,5.2,4.8,5.2,7.9
			c0,3.2-3,6.8-8.7,6.8c-2.6,0-5.5-0.8-7.4-2.5l1.8-2.9c1.3,1,2.9,2,5.1,2c2.1,0,3.9-1.1,3.9-3.5c0-2.8-3.4-4.6-5.4-6.2
			c-2.4-2-4.5-3.5-4.5-6.9c0-3.4,3.4-6.1,8-6.1c2.9,0,5.2,1,6.4,2.2L40.3,133.9z"/>
		<path class="st0" d="M50.4,146.1c-0.1,3.4,2.3,5.9,5.3,5.9c1.8,0,3.6-0.6,4.8-1.4l1.4,2.5c-2.4,1.4-5,2-7.1,2
			c-5.4,0-9.5-3.9-9.5-9.8c0-5.5,4-9.1,9.2-9.1c5.6,0,8,4.5,7.6,9.9H50.4z M57.6,143.5c0.2-2.7-0.8-4.6-3.2-4.6
			c-2.7,0-4,2.2-3.9,4.6H57.6z"/>
		<path class="st0" d="M70.8,139.9L70.8,139.9l1-1.4c0.6-0.8,1.6-2.2,3.1-2.2c1.1,0,2.2,0.6,3.2,1.6l-1.8,3.3
			c-0.8-0.4-1.3-0.6-2.3-0.6c-1.7,0-3.3,1.3-3.3,5.2v8.9H66v-18h4.8V139.9z"/>
		<path class="st0" d="M86.9,154.7l-7.3-17.5l4.8-0.9c1.5,4.1,3.1,8.3,4.6,13.3H89c1.6-5,3.3-9.2,4.9-13.3l4.1,0.8l-7.8,17.6H86.9z"
			/>
		<path class="st0" d="M100.2,131.3c0-1.4,1.2-2.8,2.8-2.8c1.7,0,3,1.4,3,2.8c0,1.5-1.1,3-2.9,3
			C101.3,134.3,100.2,132.8,100.2,131.3z M105.4,136.7v18h-4.8v-18H105.4z"/>
		<path class="st0" d="M124.4,153.7c-1.5,0.9-3.5,1.4-5.1,1.4c-7.5,0-9.9-5.7-9.9-9.4c0-5,3.8-9.5,10.2-9.5c1.4,0,3.2,0.4,4.7,1.2
			l-1.2,2.8c-0.5-0.2-1-0.4-1.6-0.5c-0.5-0.1-1.1-0.2-1.6-0.2c-2.7,0-5.4,1.8-5.4,6c0,3.6,2.1,6.4,5.5,6.4c1.1,0,2.3-0.3,3.5-0.9
			L124.4,153.7z"/>
		<path class="st0" d="M131.7,146.1c-0.1,3.4,2.3,5.9,5.3,5.9c1.8,0,3.6-0.6,4.8-1.4l1.4,2.5c-2.4,1.4-5,2-7.1,2
			c-5.4,0-9.5-3.9-9.5-9.8c0-5.5,4-9.1,9.2-9.1c5.6,0,8,4.5,7.6,9.9H131.7z M138.9,143.5c0.2-2.7-0.8-4.6-3.2-4.6
			c-2.7,0-4,2.2-3.9,4.6H138.9z"/>
		<path class="st0" d="M157.1,140.1c-1.1-0.8-2.2-1.2-3.1-1.2c-1.1,0-2.2,0.6-2.2,1.8c0,1.4,1.7,2.3,3.7,3.7
			c2.6,1.9,3.3,3.8,3.3,5.4c0,2.5-2.8,5.2-6.7,5.2c-2.5,0-4.3-0.9-6-2.1l1.5-2.5c1.1,0.9,2.6,1.7,3.9,1.7c1.4,0,2.6-0.7,2.6-2.2
			c0-1.7-1.9-2.6-3.6-3.9c-2.1-1.4-3.5-2.8-3.5-5c0-2.8,2.7-5,6.3-5c2,0,3.9,0.5,5.2,1.7L157.1,140.1z"/>
	</g>
	<path class="st1" d="M185,52.6h-4.3c0,0-5.6,11.5-21.1,13.1c-15.5,1.6-21.1-1.3-37.9-1.1c-16.8,0.3-27.1,18.1-27.1,18.1
		c-1.3,2-1,5.1-0.1,5.2c1.1,0,6.4-11.5,25.1-12.9c18.7-1.3,26.2,7.5,44.3,2.1C182,71.8,185,52.6,185,52.6z"/>
	<g>
		<path class="st0" d="M35.4,167.5c-1.1-0.8-2.6-1.4-4-1.4c-2.1,0-3.3,1.2-3.3,2.6c0,1.6,1.8,2.9,4.7,5.2c3.4,2.7,5.2,4.8,5.2,7.9
			c0,3.2-3,6.8-8.7,6.8c-2.6,0-5.5-0.8-7.4-2.5l1.8-2.9c1.3,1,2.9,2,5.1,2c2.1,0,3.9-1.1,3.9-3.5c0-2.8-3.4-4.6-5.4-6.2
			c-2.4-2-4.5-3.5-4.5-6.8c0-3.4,3.4-6.1,7.9-6.1c2.9,0,5.2,1,6.3,2.2L35.4,167.5z"/>
		<path class="st0" d="M56.3,187.2c-1.5,0.9-3.5,1.4-5.1,1.4c-7.4,0-9.9-5.7-9.9-9.3c0-5,3.8-9.5,10.1-9.5c1.4,0,3.2,0.4,4.7,1.2
			l-1.1,2.8c-0.5-0.2-1-0.4-1.6-0.5c-0.5-0.1-1.1-0.2-1.6-0.2c-2.7,0-5.4,1.8-5.4,6c0,3.6,2,6.3,5.4,6.3c1.1,0,2.3-0.3,3.5-0.9
			L56.3,187.2z"/>
		<path class="st0" d="M58.4,179c0-5.8,4.6-9.2,9.4-9.2c4.8,0,9.4,3.4,9.4,9.2c0,5.5-3.8,9.6-9.4,9.6
			C62.2,188.6,58.4,184.5,58.4,179z M72.2,179c0-3-1-6.5-4.4-6.5c-3.3,0-4.3,3.5-4.3,6.5c0,3.2,0.9,6.9,4.3,6.9
			C71.3,185.9,72.2,182.1,72.2,179z"/>
		<path class="st0" d="M86.7,170.3h4.7v2.4h-4.7v8.8c0,2.9,0.9,4.2,2.5,4.2c1,0,1.6-0.3,2.3-0.6l0.8,2.4c-1.4,0.8-3.1,1.1-4.7,1.1
			c-3.9,0-5.7-2.1-5.7-5.7v-10.2h-2.5v-2.4h2.5V166l4.8-1.1V170.3z"/>
		<path class="st0" d="M95,188.2v-26.3h4.8v26.3H95z"/>
		<path class="st0" d="M113.4,186.4c-1.3,1-2.9,2.1-4.6,2.1c-2.8,0-5.1-2.1-5.1-5.4c0-3.4,2.5-5.3,6.6-6.5l4.2-1.3
			c-0.3-1.6-1.7-2.7-3.3-2.7c-2,0-3.5,0.8-4.7,1.8l-1.5-2.3c2.2-1.8,4.4-2.4,6.9-2.4c3.3,0,7.3,1.1,7.3,6.7v7.3
			c0,1.4,0.2,3.1,0.8,4.4h-5c-0.4-0.6-0.5-1.6-0.5-2.6L113.4,186.4z M111.9,178.6c-2.3,0.7-3.5,2.1-3.5,4.1c0,1.6,1,2.6,2.1,2.6
			c1.9,0,4.4-2.4,4-7.6L111.9,178.6z"/>
		<path class="st0" d="M128.6,172.4c1.6-1.7,3.9-2.5,6.1-2.5c4.2,0,6.4,2.3,6.4,6.8v11.5h-4.8v-11c0-2.5-1.1-4.2-3.6-4.2
			c-2.3,0-4.2,1.5-4.2,4.5v10.7h-4.8v-17.9h4.7V172.4z"/>
		<path class="st0" d="M158.7,185.6L158.7,185.6c-1.3,1.5-3.1,3-5.9,3c-4.7,0-7.8-3.9-7.8-9.6c0-4.7,3.4-9.2,8.2-9.2
			c2.3,0,4.4,0.9,5.5,2.5h0.1v-10.5h4.8v26.3h-4.8V185.6z M150.1,178.9c0,3.5,1.4,6.8,4.1,6.8c3.2,0,4.5-3.4,4.5-7
			c0-3.1-1.5-6-4.3-6C151.3,172.7,150.1,175.4,150.1,178.9z"/>
	</g>
</g>
</svg>
