<?xml version="1.0" encoding="utf-8"?>
<!-- Generator: Adobe Illustrator 19.1.0, SVG Export Plug-In . SVG Version: 6.00 Build 0)  -->
<svg version="1.1" id="Layer_1" xmlns="http://www.w3.org/2000/svg" xmlns:xlink="http://www.w3.org/1999/xlink" x="0px" y="0px"
	 viewBox="68 -69.6 185 188.6" style="enable-background:new 68 -69.6 185 188.6;" xml:space="preserve">
<style type="text/css">
	.st0{fill:#FFFFFF;}
</style>
<g>
	<path class="st0" d="M89.9-68.7h16.8L123.5-35h0.1l-0.1-33.8h11v49.6h-15.4l-17.4-33.9h-0.1v33.9H89.9
		C89.9-19.2,89.9-68.7,89.9-68.7z"/>
	<path class="st0" d="M142.9-68.7h13.2v19h15.6v-19h13.2v49.6h-13.2v-21.3h-15.6v21.2h-13.2V-68.7z"/>
	<path class="st0" d="M195.3-31.4c3.4,1.8,8.2,3.3,13.6,3.3c4.2,0,8.2-0.9,8.2-4.8c0-9.2-23.4-3.4-23.4-21.4
		c0-12,11.6-15.3,21.6-15.3c4.8,0,9.4,0.7,12.8,1.8l-0.9,10.2c-3.4-1.6-7.2-2.3-11-2.3c-3.3,0-8.9,0.3-8.9,4.6
		c0,8,23.4,2.6,23.4,20.5c0,12.9-10.8,16.3-21.8,16.3c-4.6,0-10.4-0.7-14.8-2.1L195.3-31.4z"/>
</g>
<g>
	<path class="st0" d="M68-17h4.3c0,0,5.6,11.5,21.1,13.1s21.1-1.3,37.9-1.1c16.8,0.3,27.1,18.1,27.1,18.1c1.3,2.2,1.1,5.1,0.1,5.2
		c-0.9,0-6.4-11.5-25.1-12.9c-18.7-1.3-26.2,7.5-44.3,2.1C70.9,2.2,68-17,68-17z"/>
</g>
<g>
	<path class="st0" d="M112.2,53.1h-3.7c-4.8-5.8-9.6-11.6-14.4-18.1H94v18.1h-4.1V27.9h3.7c4.8,5.8,9.6,11.5,14.4,18h0.1v-18h4.1
		C112.2,27.9,112.2,53.1,112.2,53.1z"/>
	<path class="st0" d="M126.8,51.4c-1.3,1-3,2.2-4.6,2.2c-2.8,0-5.1-2.2-5.1-5.5c0-3.4,2.5-5.4,6.7-6.6l4.2-1.3
		c-0.3-1.7-1.7-2.7-3.3-2.7c-2.1,0-3.5,0.8-4.8,1.8l-1.5-2.3c2.2-1.8,4.4-2.4,6.9-2.4c3.3,0,7.4,1.1,7.4,6.7v7.3
		c0,1.4,0.2,3.1,0.8,4.4h-5.1c-0.4-0.6-0.5-1.7-0.5-2.6L126.8,51.4z M125.3,43.5c-2.3,0.7-3.5,2.1-3.5,4.1c0,1.6,1,2.7,2.2,2.7
		c1.9,0,4.4-2.4,4-7.7L125.3,43.5z"/>
	<path class="st0" d="M143.4,35.1h4.7v2.4h-4.7v8.9c0,3,0.9,4.2,2.5,4.2c1,0,1.7-0.3,2.3-0.6l0.8,2.4c-1.4,0.8-3.1,1.2-4.7,1.2
		c-4,0-5.7-2.1-5.7-5.8V37.6h-2.5v-2.4h2.5v-4.3l4.8-1.1C143.4,29.8,143.4,35.1,143.4,35.1z"/>
	<path class="st0" d="M151.7,29.7c0-1.4,1.2-2.8,2.8-2.8c1.7,0,3,1.4,3,2.8c0,1.5-1.1,3-2.9,3C152.8,32.7,151.7,31.2,151.7,29.7z
		 M156.9,35.1v18h-4.8v-18H156.9z"/>
	<path class="st0" d="M161.2,43.9c0-5.8,4.6-9.2,9.4-9.2c4.9,0,9.5,3.4,9.5,9.2c0,5.6-3.8,9.6-9.5,9.6
		C165,53.5,161.2,49.5,161.2,43.9z M175,43.9c0-3-1-6.6-4.4-6.6c-3.3,0-4.4,3.6-4.4,6.6c0,3.2,0.9,7,4.4,7S175,47,175,43.9z"/>
	<path class="st0" d="M189.2,37.2c1.6-1.7,3.9-2.6,6.2-2.6c4.2,0,6.4,2.3,6.4,6.8V53H197V41.9c0-2.5-1.1-4.2-3.6-4.2
		c-2.3,0-4.2,1.5-4.2,4.5v10.7h-4.8v-18h4.8C189.2,34.9,189.2,37.2,189.2,37.2z"/>
	<path class="st0" d="M215.9,51.4c-1.3,1-3,2.2-4.6,2.2c-2.8,0-5.1-2.2-5.1-5.5c0-3.4,2.5-5.4,6.7-6.6l4.2-1.3
		c-0.3-1.7-1.7-2.7-3.3-2.7c-2.1,0-3.5,0.8-4.8,1.8l-1.5-2.3c2.2-1.8,4.4-2.4,6.9-2.4c3.3,0,7.4,1.1,7.4,6.7v7.3
		c0,1.4,0.2,3.1,0.8,4.4h-5.1c-0.4-0.6-0.5-1.7-0.5-2.6L215.9,51.4z M214.4,43.5c-2.3,0.7-3.5,2.1-3.5,4.1c0,1.6,1,2.7,2.2,2.7
		c1.9,0,4.4-2.4,4-7.7L214.4,43.5z"/>
	<path class="st0" d="M226.8,53.1V26.6h4.8v26.5H226.8z"/>
	<path class="st0" d="M108.3,64.3c-1.1-0.8-2.6-1.4-4.1-1.4c-2.1,0-3.3,1.2-3.3,2.7c0,1.7,1.8,2.9,4.7,5.3c3.4,2.7,5.2,4.8,5.2,7.9
		c0,3.2-3,6.8-8.7,6.8c-2.6,0-5.5-0.8-7.4-2.5l1.8-2.9c1.3,1,2.9,2,5.1,2c2.1,0,3.9-1.1,3.9-3.5c0-2.8-3.4-4.6-5.4-6.2
		c-2.4-2-4.5-3.5-4.5-6.9s3.4-6.1,8-6.1c2.9,0,5.2,1,6.4,2.2L108.3,64.3z"/>
	<path class="st0" d="M118.4,76.5c-0.1,3.4,2.3,5.9,5.3,5.9c1.8,0,3.6-0.6,4.8-1.4l1.4,2.5c-2.4,1.4-5,2-7.1,2
		c-5.4,0-9.5-3.9-9.5-9.8c0-5.5,4-9.1,9.2-9.1c5.6,0,8,4.5,7.6,9.9L118.4,76.5L118.4,76.5z M125.6,73.9c0.2-2.7-0.8-4.6-3.2-4.6
		c-2.7,0-4,2.2-3.9,4.6H125.6z"/>
	<path class="st0" d="M138.8,70.3L138.8,70.3l1-1.4c0.6-0.8,1.6-2.2,3.1-2.2c1.1,0,2.2,0.6,3.2,1.6l-1.8,3.3
		c-0.8-0.4-1.3-0.6-2.3-0.6c-1.7,0-3.3,1.3-3.3,5.2v8.9H134v-18h4.8V70.3z"/>
	<path class="st0" d="M154.9,85.1l-7.3-17.5l4.8-0.9c1.5,4.1,3.1,8.3,4.6,13.3l0,0c1.6-5,3.3-9.2,4.9-13.3l4.1,0.8l-7.8,17.6
		L154.9,85.1L154.9,85.1z"/>
	<path class="st0" d="M168.2,61.7c0-1.4,1.2-2.8,2.8-2.8c1.7,0,3,1.4,3,2.8c0,1.5-1.1,3-2.9,3C169.3,64.7,168.2,63.2,168.2,61.7z
		 M173.4,67.1v18h-4.8v-18H173.4z"/>
	<path class="st0" d="M192.4,84.1c-1.5,0.9-3.5,1.4-5.1,1.4c-7.5,0-9.9-5.7-9.9-9.4c0-5,3.8-9.5,10.2-9.5c1.4,0,3.2,0.4,4.7,1.2
		l-1.2,2.8c-0.5-0.2-1-0.4-1.6-0.5c-0.5-0.1-1.1-0.2-1.6-0.2c-2.7,0-5.4,1.8-5.4,6c0,3.6,2.1,6.4,5.5,6.4c1.1,0,2.3-0.3,3.5-0.9
		L192.4,84.1z"/>
	<path class="st0" d="M199.7,76.5c-0.1,3.4,2.3,5.9,5.3,5.9c1.8,0,3.6-0.6,4.8-1.4l1.4,2.5c-2.4,1.4-5,2-7.1,2
		c-5.4,0-9.5-3.9-9.5-9.8c0-5.5,4-9.1,9.2-9.1c5.6,0,8,4.5,7.6,9.9L199.7,76.5L199.7,76.5z M206.9,73.9c0.2-2.7-0.8-4.6-3.2-4.6
		c-2.7,0-4,2.2-3.9,4.6H206.9z"/>
	<path class="st0" d="M225.1,70.5c-1.1-0.8-2.2-1.2-3.1-1.2c-1.1,0-2.2,0.6-2.2,1.8c0,1.4,1.7,2.3,3.7,3.7c2.6,1.9,3.3,3.8,3.3,5.4
		c0,2.5-2.8,5.2-6.7,5.2c-2.5,0-4.3-0.9-6-2.1l1.5-2.5c1.1,0.9,2.6,1.7,3.9,1.7c1.4,0,2.6-0.7,2.6-2.2c0-1.7-1.9-2.6-3.6-3.9
		c-2.1-1.4-3.5-2.8-3.5-5c0-2.8,2.7-5,6.3-5c2,0,3.9,0.5,5.2,1.7L225.1,70.5z"/>
</g>
<path class="st0" d="M253-17h-4.3c0,0-5.6,11.5-21.1,13.1S206.5-5.2,189.7-5c-16.8,0.3-27.1,18.1-27.1,18.1c-1.3,2-1,5.1-0.1,5.2
	c1.1,0,6.4-11.5,25.1-12.9c18.7-1.3,26.2,7.5,44.3,2.1C250,2.2,253-17,253-17z"/>
<g>
	<path class="st0" d="M103.4,97.9c-1.1-0.8-2.6-1.4-4-1.4c-2.1,0-3.3,1.2-3.3,2.6c0,1.6,1.8,2.9,4.7,5.2c3.4,2.7,5.2,4.8,5.2,7.9
		c0,3.2-3,6.8-8.7,6.8c-2.6,0-5.5-0.8-7.4-2.5l1.8-2.9c1.3,1,2.9,2,5.1,2c2.1,0,3.9-1.1,3.9-3.5c0-2.8-3.4-4.6-5.4-6.2
		c-2.4-2-4.5-3.5-4.5-6.8c0-3.4,3.4-6.1,7.9-6.1c2.9,0,5.2,1,6.3,2.2L103.4,97.9z"/>
	<path class="st0" d="M124.3,117.6c-1.5,0.9-3.5,1.4-5.1,1.4c-7.4,0-9.9-5.7-9.9-9.3c0-5,3.8-9.5,10.1-9.5c1.4,0,3.2,0.4,4.7,1.2
		l-1.1,2.8c-0.5-0.2-1-0.4-1.6-0.5c-0.5-0.1-1.1-0.2-1.6-0.2c-2.7,0-5.4,1.8-5.4,6c0,3.6,2,6.3,5.4,6.3c1.1,0,2.3-0.3,3.5-0.9
		L124.3,117.6z"/>
	<path class="st0" d="M126.4,109.4c0-5.8,4.6-9.2,9.4-9.2s9.4,3.4,9.4,9.2c0,5.5-3.8,9.6-9.4,9.6C130.2,119,126.4,114.9,126.4,109.4
		z M140.2,109.4c0-3-1-6.5-4.4-6.5c-3.3,0-4.3,3.5-4.3,6.5c0,3.2,0.9,6.9,4.3,6.9C139.3,116.3,140.2,112.5,140.2,109.4z"/>
	<path class="st0" d="M154.7,100.7h4.7v2.4h-4.7v8.8c0,2.9,0.9,4.2,2.5,4.2c1,0,1.6-0.3,2.3-0.6l0.8,2.4c-1.4,0.8-3.1,1.1-4.7,1.1
		c-3.9,0-5.7-2.1-5.7-5.7v-10.2h-2.5v-2.4h2.5v-4.3l4.8-1.1L154.7,100.7L154.7,100.7z"/>
	<path class="st0" d="M163,118.6V92.3h4.8v26.3H163z"/>
	<path class="st0" d="M181.4,116.8c-1.3,1-2.9,2.1-4.6,2.1c-2.8,0-5.1-2.1-5.1-5.4c0-3.4,2.5-5.3,6.6-6.5l4.2-1.3
		c-0.3-1.6-1.7-2.7-3.3-2.7c-2,0-3.5,0.8-4.7,1.8l-1.5-2.3c2.2-1.8,4.4-2.4,6.9-2.4c3.3,0,7.3,1.1,7.3,6.7v7.3
		c0,1.4,0.2,3.1,0.8,4.4h-5c-0.4-0.6-0.5-1.6-0.5-2.6L181.4,116.8z M179.9,109c-2.3,0.7-3.5,2.1-3.5,4.1c0,1.6,1,2.6,2.1,2.6
		c1.9,0,4.4-2.4,4-7.6L179.9,109z"/>
	<path class="st0" d="M196.6,102.8c1.6-1.7,3.9-2.5,6.1-2.5c4.2,0,6.4,2.3,6.4,6.8v11.5h-4.8v-11c0-2.5-1.1-4.2-3.6-4.2
		c-2.3,0-4.2,1.5-4.2,4.5v10.7h-4.8v-17.9h4.7v2.1H196.6z"/>
	<path class="st0" d="M226.7,116L226.7,116c-1.3,1.5-3.1,3-5.9,3c-4.7,0-7.8-3.9-7.8-9.6c0-4.7,3.4-9.2,8.2-9.2
		c2.3,0,4.4,0.9,5.5,2.5h0.1V92.2h4.8v26.3h-4.8V116H226.7z M218.1,109.3c0,3.5,1.4,6.8,4.1,6.8c3.2,0,4.5-3.4,4.5-7
		c0-3.1-1.5-6-4.3-6C219.3,103.1,218.1,105.8,218.1,109.3z"/>
</g>
</svg>
