<?xml version="1.0" encoding="utf-8"?>
<!-- Generator: Adobe Illustrator 19.1.0, SVG Export Plug-In . SVG Version: 6.00 Build 0)  -->
<svg version="1.1" id="Layer_1" xmlns="http://www.w3.org/2000/svg" xmlns:xlink="http://www.w3.org/1999/xlink" x="0px" y="0px"
	 viewBox="0 0 401.5 328.1" style="enable-background:new 0 0 401.5 328.1;" xml:space="preserve">
<style type="text/css">
	.st0{fill:#DA3228;}
	.st1{fill:#004784;}
</style>
<g>
	<path class="st0" d="M270.1,64.9c-2.5-3.9-8.2-10-14.9-13.2c-7.3-3.5-15.9-4.3-18.8-4.3c-7.5,0-16.8,1.8-26.5,7.7
		c-3.1,1.9-6.2,4.2-9,6.4h0c-2.8-2.2-6-4.5-9.1-6.4c-9.7-5.9-19.1-7.8-26.5-7.7c-2.9,0-11.5,0.8-18.8,4.3
		c-6.7,3.2-12.4,9.3-14.9,13.2c-2.5,4-6.7,14-6.7,25c0,4.9,0.8,15,5.7,26c6.3,14.1,17.1,29.1,17.1,29.1c20.2,26.9,46.9,47.8,53,52.4
		h0c6.1-4.6,33-25.4,53.2-52.4c0,0,10.8-15,17.1-29.1c4.9-11.1,5.7-21.1,5.7-26C276.8,78.9,272.6,68.8,270.1,64.9 M254.5,110.8
		c-3.5,7.8-8.3,15.9-14,23.6l-0.3,0.1c-8.5,11.4-18.6,22.2-27.8,30.6c-4.1,3.8-8.2,7.1-11.6,9.9l0,0c-3.4-2.8-7.3-6.1-11.4-9.9
		c-9.1-8.4-19.3-19.2-27.8-30.6l-0.2-0.1c-5.7-7.6-10.5-15.7-14-23.6c-1.9-4.2-4.8-13.1-4.9-21c-0.1-6.9,2.5-13,4.1-15.3
		c3-4.5,8-6.9,9.5-7.7c3.1-1.6,9.6-1.8,9.6-1.8c10.4,0,16.7,3.2,23.5,8c3.4,2.4,11.8,11.5,11.9,11.6c0.1-0.1,8.5-9.3,11.9-11.6
		c6.8-4.8,13.1-8,23.5-8c0,0,6.4,0.2,9.6,1.8c1.5,0.8,6.4,3.2,9.5,7.7c1.5,2.2,4.1,8.3,4.1,15.3C259.3,97.7,256.4,106.6,254.5,110.8
		"/>
	<path class="st1" d="M385.6,322.7h-3v-14h5.2c3.6,0,5.8,1,5.8,4.2c0,2.6-1.5,3.5-3.4,3.6l3.6,6.1h-3.6l-3.2-5.9h-1.4V322.7z
		 M388.2,314.5c1.3,0,2.1-0.3,2.1-1.8c0-1.4-1.5-1.5-2.7-1.5h-2.1v3.4H388.2z M305.9,317.8l-105.1-90.9l-105,90.9l26.6,0l78.4-67.9
		l78.5,67.9L305.9,317.8z M77,297.1l106.2-84.7l-105-89.9l-0.1,22.8l77.8,66.6L77,274.8L77,297.1z M324.7,274.8l-78.8-62.9
		l77.8-66.6l-0.1-22.9l-105,89.9l106.2,84.7L324.7,274.8z M56.7,314.4c4.4-3.6,4.9-7.8,1.3-12.8c-3.9-5.4-8.3-6.7-12.1-4
		c-1.7,1.2-2.6,2.8-2.7,4.8c-0.1,1.5,0.6,3.4,1.4,6.2c1.2,3.7,2,5.4,0.5,6.5c-1,0.7-2.5,0.2-3.7-1.4c-1.4-2-1.3-3.6,0.3-5.1
		l-3.3-4.6c-3.8,2.7-4.3,7.4-0.9,12c3.5,4.8,7.9,5.9,11.5,3.4c2.4-1.7,3.2-4.5,2.3-8c-0.9-3.6-2.1-6.1-2.3-7.6
		c-0.1-0.6,0.2-1.3,0.8-1.7c1.2-0.8,2.7-0.3,4.2,1.8c1.7,2.4,1.4,4.4-0.7,6L56.7,314.4z M46.4,283.3c-2.8-5.1-7.5-6.8-12.9-4.8
		l2.7,4.9c2.4-0.9,4.4,0,5.7,2.3c1.6,2.9,0.3,5.9-3.8,8.2c-4.2,2.3-7.6,1.7-9.2-1.2c-1.2-2.2-1-4.1,0.8-5.7l-2.8-5
		c-4.3,3-5.3,7.9-2.5,12.9c3.5,6.3,10.1,8,16.8,4.4C47.6,295.7,49.7,289.3,46.4,283.3 M13.8,272.4c-2.6-6.7,0.1-12.8,7.3-15.6
		c7.2-2.8,13.3-0.2,16,6.5c2.6,6.8-0.1,12.7-7.3,15.5C22.5,281.7,16.4,279.2,13.8,272.4 M32.4,265.2c-1.3-3.4-4.5-4.4-9-2.6
		c-4.5,1.8-6.2,4.7-4.9,8c1.3,3.4,4.5,4.3,9,2.6C32,271.4,33.7,268.5,32.4,265.2 M31,247.8l-1.6-5.8l-18.2,4.8l-1.8-6.6l-4.6,1.2
		l5.1,18.9l4.6-1.2l-1.7-6.5L31,247.8z M1.5,220.7l3,19.3l4.8-0.7l-1-6.7l18.6-2.9l-0.9-6l-18.7,2.9l-1-6.7L1.5,220.7z M1.1,212.8
		l0.5,6l23.6-1.9l-0.5-6L1.1,212.8z M16.6,210c5.7-0.4,8.5-3.7,8.4-9.8c-0.1-6.6-3-10.2-7.7-10.1c-2,0-3.7,0.8-5,2.4
		c-0.9,1.2-1.5,3.1-2.3,5.9c-1.2,3.7-1.5,5.6-3.3,5.6c-1.2,0-2.2-1.2-2.2-3.2c0-2.4,1-3.7,3.2-4L7.7,191c-4.7,0.1-7.8,3.6-7.7,9.4
		c0.1,5.9,3.1,9.4,7.6,9.3c2.9,0,5.2-1.8,6.5-5.3c1.3-3.5,1.8-6.2,2.5-7.6c0.3-0.6,0.9-0.9,1.7-0.9c1.5,0,2.4,1.3,2.4,3.8
		c0,2.9-1.3,4.4-4,4.5L16.6,210z M2.5,172l8.3,1l-1,8.2l-8.3-1l-0.7,6l23.5,2.8l0.7-6l-9.9-1.2l1-8.2l9.9,1.2l0.7-6L3.3,166L2.5,172
		z M28.6,159.9l1.7-5.6l-6.9-2c-1.8-0.5-4.4-1.2-7.6-1.9c3.1-0.6,5.7-1.2,7.8-1.7l9-2.2l1.9-6.3l-22.7-6.6l-1.7,5.6l5.8,1.7
		c1.9,0.6,4.9,1.4,8.9,2.3c-2.6,0.4-5.4,1-8.3,1.7L7.7,147l-1.9,6.3L28.6,159.9z M18.8,116.7l25.1,1.8l-2.6,5.9l-4.6-0.4l-3.2,7.2
		l3.4,3l-2.5,5.7l-18.3-17.2L18.8,116.7z M31.7,123.2l-8.5-0.9l6.5,5.6L31.7,123.2z M45.7,115.8l3-5.2l-16.4-9.3l3.4-5.9l-4.2-2.4
		l-9.7,17l4.2,2.4l3.4-5.9L45.7,115.8z M52.4,104.7l3.4-5L36,86.6l-3.4,5L52.4,104.7z M44.7,74.1c4.6-5.6,11.2-6.2,17.2-1.4
		c6,4.8,6.8,11.4,2.2,17c-4.6,5.6-11.2,6.2-17.2,1.3C41,86.2,40.1,79.7,44.7,74.1 M60.2,86.6c2.3-2.8,1.6-6.1-2.2-9.1
		c-3.8-3.1-7.1-3.1-9.4-0.3c-2.3,2.8-1.6,6,2.2,9.1C54.6,89.4,57.9,89.4,60.2,86.6 M71.9,79.4l4.3-4l-4.9-5.2
		c-1.3-1.4-3.2-3.2-5.6-5.4c3,1,5.6,1.8,7.6,2.4l8.9,2.6l4.8-4.5L70.5,48.3l-4.3,4l4.2,4.4c1.4,1.4,3.5,3.6,6.5,6.4
		c-2.5-0.9-5.2-1.8-8-2.7l-8.6-2.5l-4.7,4.5L71.9,79.4z M85.5,36.9L106.2,51l-5.3,3.8l-3.7-2.6l-6.4,4.6l1.5,4.3l-5.1,3.7l-7.1-24
		L85.5,36.9z M93.3,49l-6.9-5l2.8,8.1L93.3,49z M106.8,50.9l15.3-8.7l-2.5-4.4l-10,5.7l-9.2-16l-5.3,3L106.8,50.9z M119.8,17.3
		l10.7-4.1c5.1-1.9,8.2-1.1,9.7,2.7c0.9,2.4,0.4,4.3-1.5,6c2.8-0.3,4.9,0.9,5.9,3.4c1,2.5,0.6,5-1,6.9c-1.4,1.6-3.6,2.6-6.6,3.7
		l-8.6,3.3L119.8,17.3z M133.1,22.1c1.9-0.7,2.6-1.8,2-3.2c-0.5-1.3-1.7-1.7-3.4-1l-4.8,1.8l1.6,4.2L133.1,22.1z M136.3,31.2
		c2.5-0.9,3.5-1.9,2.7-3.8c-0.6-1.6-2-2-4-1.2l-4.9,1.9l1.9,4.9L136.3,31.2z M148,32l17-4.5l-1.3-4.9l-11.1,2.9l-4.8-17.8l-5.9,1.6
		L148,32z M172.6,1.9c7.2-1,12.5,3.1,13.5,10.6c1.1,7.6-2.9,13-10.1,14c-7.2,1-12.4-3.1-13.5-10.7C161.5,8.3,165.4,3,172.6,1.9
		 M175.3,21.6c3.6-0.5,5.3-3.4,4.6-8.2c-0.7-4.8-3.1-7.1-6.7-6.6c-3.6,0.5-5.3,3.3-4.6,8.2C169.3,19.9,171.8,22.1,175.3,21.6
		 M199.3,0c7.3-0.1,12,4.6,12.1,12.2c0.1,7.7-4.4,12.5-11.7,12.6c-7.3,0.1-11.9-4.6-12.1-12.2C187.5,5,192,0.1,199.3,0 M199.6,19.9
		c3.7-0.1,5.7-2.7,5.6-7.5c-0.1-4.9-2.2-7.4-5.9-7.3c-3.6,0.1-5.7,2.7-5.6,7.5C193.9,17.4,196,19.9,199.6,19.9 M214.9,0.9l10,1.2
		c7,0.8,10.3,5.5,9.4,13c-0.9,7.8-5.2,11.2-13,10.3l-9.2-1.1L214.9,0.9z M222,20.5c3.7,0.4,5.7-1.5,6.2-6.1c0.6-4.7-0.9-7-4.6-7.4
		l-3.3-0.4l-1.6,13.5L222,20.5z M245.4,29.8l5.8,1.6l5.1-18.1l6.6,1.8l1.3-4.6l-18.9-5.3L244,9.9l6.5,1.8L245.4,29.8z M266.7,11.5
		l10.5,4.2c5.5,2.2,7.4,5.1,5.7,9.3c-1,2.5-2.8,3.7-5.6,4c2,1.9,1.7,3.4,0.8,6c-0.9,2.7-1.8,4.2-1,5.2l-0.3,0.8l-5.9-2.4
		c0.1-2.1,1.1-3.9,1.7-6c0.5-1.8-0.1-2.9-2-3.7l-3.8-1.5l-3.3,8.2l-5.6-2.3L266.7,11.5z M272.7,24.7c2.3,0.9,3.6,0.5,4.4-1.3
		c0.7-1.6-0.1-2.8-2.2-3.6l-4.3-1.7l-2,5L272.7,24.7z M301.7,27.8l-4.3,24.6l-5.7-3.2l0.9-4.5l-6.9-3.9l-3.3,3.1l-5.5-3.1l19.1-16.4
		L301.7,27.8z M293.9,39.8l1.7-8.4l-6.2,5.8L293.9,39.8z M297.6,52.6l4.7,3.5l4.3-5.7c1.1-1.5,2.6-3.7,4.4-6.5
		c-0.5,3.1-0.9,5.8-1.1,7.8l-1,9.1l5.3,3.9l14.1-18.9l-4.7-3.5l-3.6,4.8c-1.2,1.6-3,4.1-5.2,7.5c0.5-2.6,0.9-5.4,1.3-8.3l1-8.9
		l-5.3-3.9L297.6,52.6z M320.2,59.7c-3.7,4.4-3.3,8.6,1.2,12.8c4.8,4.6,9.4,5,12.6,1.7c1.4-1.5,2-3.3,1.7-5.2
		c-0.2-1.5-1.2-3.3-2.6-5.8c-1.9-3.4-2.9-5-1.7-6.2c0.8-0.9,2.4-0.7,3.9,0.7c1.8,1.7,2,3.3,0.7,5.1l4.1,3.9c3.2-3.4,2.8-8.1-1.4-12
		c-4.3-4.1-8.9-4.3-12-1.1c-2,2.1-2.3,5-0.7,8.3c1.6,3.4,3.2,5.6,3.7,7c0.2,0.6,0.1,1.3-0.5,1.8c-1,1.1-2.6,0.8-4.4-1
		c-2.1-2-2.3-4-0.4-6L320.2,59.7z M329.9,80l3.9,4.6l6.8-5.8l6.2,7.2l3.7-3.2l-6.2-7.2l3.7-3.2l7.1,8.3l3.7-3.2l-11-12.9L329.9,80z
		 M360.8,79.8l-11.6,7.9c-2.9,2-4.6,3.8-5,6.4c-0.3,2.5,0.3,5,2.1,7.5c1.8,2.6,3.8,4.1,6.3,4.7c2.6,0.6,4.9-0.3,7.8-2.3l11.6-7.9
		l-3.4-5l-12.2,8.3c-2.6,1.8-4.3,1.7-6-0.7c-1.7-2.4-1.1-4.1,1.5-5.8l12.2-8.3L360.8,79.8z M359.8,106.4c-4.9,2.9-5.9,7.1-3.1,12.5
		c3.1,5.9,7.3,7.8,11.4,5.7c1.8-0.9,3-2.4,3.4-4.4c0.3-1.4-0.1-3.5-0.5-6.3c-0.6-3.9-1.2-5.7,0.4-6.5c1.1-0.5,2.5,0.1,3.4,1.9
		c1.1,2.2,0.8,3.8-1,5l2.6,5c4.2-2.2,5.3-6.7,2.6-11.8c-2.7-5.2-7-7-10.9-4.9c-2.6,1.3-3.8,4-3.4,7.6c0.4,3.7,1.2,6.3,1.2,7.9
		c0,0.6-0.4,1.2-1.1,1.6c-1.3,0.7-2.7-0.1-3.9-2.4c-1.3-2.6-0.8-4.5,1.6-5.8L359.8,106.4z M362.2,128.8l2.3,5.6l21.8-9.1l-2.3-5.6
		L362.2,128.8z M392.1,139.3c2.2,6.9-0.9,12.7-8.3,15.1c-7.3,2.3-13.3-0.7-15.5-7.6c-2.2-6.9,1-12.7,8.3-15
		C384,129.5,389.9,132.4,392.1,139.3 M373.1,145.3c1.1,3.5,4.2,4.7,8.9,3.2c4.6-1.5,6.5-4.2,5.4-7.7c-1.1-3.4-4.2-4.6-8.9-3.2
		C373.8,139.1,372,141.9,373.1,145.3 M372.7,158.9l1,5.7l7-1.2c1.9-0.3,4.5-0.9,7.7-1.7c-2.5,1.9-4.6,3.6-6.2,5l-7.1,5.9l1.1,6.4
		l23.3-4.1l-1-5.7l-6,1c-1.9,0.3-5,0.9-9,1.8c2.2-1.5,4.4-3.3,6.7-5.1l6.9-5.7l-1.1-6.4L372.7,158.9z M384.8,186.9
		c-5.7,0.5-8.5,3.7-8.4,9.8c0.1,6.6,3,10.2,7.6,10.1c2,0,3.7-0.9,5-2.4c0.9-1.2,1.5-3.1,2.3-5.9c1.2-3.7,1.5-5.6,3.3-5.6
		c1.2,0,2.2,1.2,2.2,3.2c0,2.4-1,3.7-3.2,4l0.1,5.7c4.7-0.1,7.8-3.6,7.7-9.4c-0.1-5.9-3.1-9.4-7.6-9.3c-2.9,0-5.2,1.9-6.5,5.3
		c-1.3,3.5-1.7,6.2-2.5,7.6c-0.3,0.6-0.9,0.9-1.7,0.9c-1.4,0-2.4-1.3-2.4-3.8c0-2.9,1.3-4.4,4-4.5L384.8,186.9z M375.4,226.1
		l4.8,0.5l1.2-12.2l5,0.5l-1,10.8l4.7,0.4l1-10.8l4.2,0.4l-1.1,11.8l4.8,0.5l1.7-17.8l-23.6-2.2L375.4,226.1z M398.4,232l-2.4,11
		c-1.2,5.8-3.8,8.1-8.3,7.1c-2.6-0.5-4.2-2.1-4.9-4.8c-1.5,2.3-3,2.2-5.8,1.8c-2.9-0.4-4.4-1.1-5.3-0.1l-0.8-0.2l1.3-6.2
		c2.1-0.3,4.1,0.4,6.2,0.6c1.9,0.2,2.9-0.6,3.3-2.7l0.8-3.9l-8.7-1.8l1.3-5.9L398.4,232z M386.3,240.2c-0.5,2.4,0.1,3.6,2,4
		c1.7,0.4,2.8-0.6,3.2-2.8l1-4.6l-5.3-1.1L386.3,240.2z M369,252.8l-1.8,5.3l19.9,15.2l2-6l-10.8-7.3c-1.5-1-2.7-1.8-3.7-2.4
		c2.1,0.2,3.7,0.2,4.8,0.3l12.6,0.7l2-6.1L369,252.8z M364.4,265.3l-2.4,5.5l21.8,9.2l2.4-5.6L364.4,265.3z M355.9,281.9
		c-2.7,5.1-1.6,10,3,13.3l2.6-5c-2.1-1.5-2.5-3.6-1.2-6c1.5-2.9,4.8-3.5,8.9-1.3c4.2,2.2,5.6,5.4,4.1,8.3c-1.2,2.2-2.9,3.1-5.2,2.5
		l-2.7,5c4.9,2,9.5,0.1,12.2-5c3.4-6.4,1.2-12.8-5.6-16.4C365.6,274,359.1,275.8,355.9,281.9 M351,292.1l-10.4,15.1l4,2.7l7-10.1
		l4.2,2.9l-6.2,8.9l3.9,2.7l6.2-8.9l3.4,2.4l-6.8,9.8l4,2.7l10.2-14.7L351,292.1z M375.1,315.8c0-6.8,5.5-12.3,12.3-12.3
		c6.8,0,12.3,5.5,12.3,12.3c0,6.8-5.5,12.3-12.3,12.3C380.6,328.1,375.1,322.6,375.1,315.8 M378.3,315.8c0,5,4.1,9.1,9.2,9.1
		c5,0,9.1-4.1,9.1-9.1c0-5-4.1-9.1-9.1-9.1C382.4,306.7,378.3,310.8,378.3,315.8"/>
</g>
</svg>
